<svg width="1653" height="992" xmlns="http://www.w3.org/2000/svg" xmlns:xlink="http://www.w3.org/1999/xlink" overflow="hidden"><defs><clipPath id="clip0"><rect x="277" y="2557" width="1653" height="992"/></clipPath><clipPath id="clip1"><rect x="277" y="2557" width="1650" height="990"/></clipPath><clipPath id="clip2"><rect x="277" y="2557" width="1650" height="990"/></clipPath><clipPath id="clip3"><rect x="277" y="2557" width="1650" height="990"/></clipPath><clipPath id="clip4"><rect x="277" y="2557" width="1650" height="990"/></clipPath><clipPath id="clip5"><rect x="277" y="2557" width="1650" height="990"/></clipPath><clipPath id="clip6"><rect x="277" y="2557" width="1650" height="990"/></clipPath><clipPath id="clip7"><rect x="277" y="2557" width="1650" height="990"/></clipPath><clipPath id="clip8"><rect x="277" y="2557" width="1650" height="990"/></clipPath><clipPath id="clip9"><rect x="277" y="2557" width="1650" height="990"/></clipPath><clipPath id="clip10"><rect x="277" y="2557" width="1650" height="990"/></clipPath><clipPath id="clip11"><rect x="277" y="2557" width="1650" height="990"/></clipPath><clipPath id="clip12"><rect x="277" y="2557" width="1650" height="990"/></clipPath><clipPath id="clip13"><rect x="277" y="2557" width="1650" height="990"/></clipPath><clipPath id="clip14"><rect x="277" y="2557" width="1650" height="990"/></clipPath><clipPath id="clip15"><rect x="277" y="2557" width="1650" height="990"/></clipPath><clipPath id="clip16"><rect x="277" y="2557" width="1650" height="990"/></clipPath><clipPath id="clip17"><rect x="277" y="2557" width="1650" height="990"/></clipPath><clipPath id="clip18"><rect x="277" y="2557" width="1650" height="990"/></clipPath><clipPath id="clip19"><rect x="277" y="2557" width="1650" height="990"/></clipPath><clipPath id="clip20"><rect x="277" y="2557" width="1650" height="990"/></clipPath><clipPath id="clip21"><rect x="277" y="2557" width="1650" height="990"/></clipPath><clipPath id="clip22"><rect x="277" y="2557" width="1650" height="990"/></clipPath><clipPath id="clip23"><rect x="277" y="2557" width="1650" height="990"/></clipPath><clipPath id="clip24"><rect x="277" y="2557" width="1650" height="990"/></clipPath><clipPath id="clip25"><rect x="277" y="2557" width="1650" height="990"/></clipPath><clipPath id="clip26"><rect x="277" y="2557" width="1650" height="990"/></clipPath><clipPath id="clip27"><rect x="277" y="2557" width="1650" height="990"/></clipPath><clipPath id="clip28"><rect x="277" y="2557" width="1650" height="990"/></clipPath><clipPath id="clip29"><rect x="277" y="2557" width="1650" height="990"/></clipPath><clipPath id="clip30"><rect x="277" y="2557" width="1650" height="990"/></clipPath><clipPath id="clip31"><rect x="277" y="2557" width="1650" height="990"/></clipPath><clipPath id="clip32"><rect x="277" y="2557" width="1650" height="990"/></clipPath><clipPath id="clip33"><rect x="277" y="2557" width="1650" height="990"/></clipPath><clipPath id="clip34"><rect x="277" y="2557" width="1650" height="990"/></clipPath><clipPath id="clip35"><rect x="277" y="2557" width="1650" height="990"/></clipPath><clipPath id="clip36"><rect x="277" y="2557" width="1650" height="990"/></clipPath><clipPath id="clip37"><rect x="277" y="2557" width="1650" height="990"/></clipPath><clipPath id="clip38"><rect x="277" y="2557" width="1650" height="990"/></clipPath><clipPath id="clip39"><rect x="277" y="2557" width="1650" height="990"/></clipPath><clipPath id="clip40"><rect x="277" y="2557" width="1650" height="990"/></clipPath><clipPath id="clip41"><rect x="277" y="2557" width="1650" height="990"/></clipPath><clipPath id="clip42"><rect x="277" y="2557" width="1650" height="990"/></clipPath><clipPath id="clip43"><rect x="277" y="2557" width="1650" height="990"/></clipPath><clipPath id="clip44"><rect x="277" y="2557" width="1650" height="990"/></clipPath><clipPath id="clip45"><rect x="277" y="2557" width="1650" height="990"/></clipPath><clipPath id="clip46"><rect x="277" y="2557" width="1650" height="990"/></clipPath><clipPath id="clip47"><rect x="277" y="2557" width="1650" height="990"/></clipPath><clipPath id="clip48"><rect x="277" y="2557" width="1650" height="990"/></clipPath><clipPath id="clip49"><rect x="277" y="2557" width="1650" height="990"/></clipPath><clipPath id="clip50"><rect x="277" y="2557" width="1650" height="990"/></clipPath><clipPath id="clip51"><rect x="277" y="2557" width="1650" height="990"/></clipPath><clipPath id="clip52"><rect x="277" y="2557" width="1650" height="990"/></clipPath><clipPath id="clip53"><rect x="277" y="2557" width="1650" height="990"/></clipPath><clipPath id="clip54"><rect x="277" y="2557" width="1650" height="990"/></clipPath><clipPath id="clip55"><rect x="277" y="2557" width="1650" height="990"/></clipPath><clipPath id="clip56"><rect x="277" y="2557" width="1650" height="990"/></clipPath><clipPath id="clip57"><rect x="277" y="2557" width="1650" height="990"/></clipPath><clipPath id="clip58"><rect x="277" y="2557" width="1650" height="990"/></clipPath><clipPath id="clip59"><rect x="277" y="2557" width="1650" height="990"/></clipPath><clipPath id="clip60"><rect x="277" y="2557" width="1650" height="990"/></clipPath><clipPath id="clip61"><rect x="277" y="2557" width="1650" height="990"/></clipPath><clipPath id="clip62"><rect x="277" y="2557" width="1650" height="990"/></clipPath><clipPath id="clip63"><rect x="277" y="2557" width="1650" height="990"/></clipPath><clipPath id="clip64"><rect x="277" y="2557" width="1650" height="990"/></clipPath><clipPath id="clip65"><rect x="277" y="2557" width="1650" height="990"/></clipPath><clipPath id="clip66"><rect x="277" y="2557" width="1650" height="990"/></clipPath><clipPath id="clip67"><rect x="277" y="2557" width="1650" height="990"/></clipPath><clipPath id="clip68"><rect x="277" y="2557" width="1650" height="990"/></clipPath><clipPath id="clip69"><rect x="277" y="2557" width="1650" height="990"/></clipPath><clipPath id="clip70"><rect x="277" y="2557" width="1650" height="990"/></clipPath><clipPath id="clip71"><rect x="277" y="2557" width="1650" height="990"/></clipPath><clipPath id="clip72"><rect x="277" y="2557" width="1650" height="990"/></clipPath><clipPath id="clip73"><rect x="277" y="2557" width="1650" height="990"/></clipPath><clipPath id="clip74"><rect x="277" y="2557" width="1650" height="990"/></clipPath><clipPath id="clip75"><rect x="277" y="2557" width="1650" height="990"/></clipPath><clipPath id="clip76"><rect x="277" y="2557" width="1650" height="990"/></clipPath><clipPath id="clip77"><rect x="277" y="2557" width="1650" height="990"/></clipPath><clipPath id="clip78"><rect x="277" y="2557" width="1650" height="990"/></clipPath><clipPath id="clip79"><rect x="277" y="2557" width="1650" height="990"/></clipPath><clipPath id="clip80"><rect x="277" y="2557" width="1650" height="990"/></clipPath><clipPath id="clip81"><rect x="277" y="2557" width="1650" height="990"/></clipPath><clipPath id="clip82"><rect x="277" y="2557" width="1650" height="990"/></clipPath><clipPath id="clip83"><rect x="277" y="2557" width="1650" height="990"/></clipPath><clipPath id="clip84"><rect x="277" y="2557" width="1650" height="990"/></clipPath></defs><g clip-path="url(#clip0)" transform="translate(-277 -2557)"><rect x="278" y="2558" width="1650" height="989" fill="#FFFFFF"/><g clip-path="url(#clip1)"><path d="M897.768 2695.57C949.036 2695.57 999.747 2706.21 1046.7 2726.81L897.768 3066.25Z" stroke="#FFFFFF" stroke-width="6.875" stroke-linejoin="round" stroke-miterlimit="10" fill="#4472C4" fill-rule="evenodd"/></g><g clip-path="url(#clip2)"><path d="M1046.7 2726.81C1053.78 2729.92 1060.77 2733.25 1067.65 2736.8L897.768 3066.25Z" stroke="#FFFFFF" stroke-width="6.875" stroke-linejoin="round" stroke-miterlimit="10" fill="#ED7D31" fill-rule="evenodd"/></g><g clip-path="url(#clip3)"><path d="M1067.65 2736.79C1134.9 2771.47 1189.93 2825.9 1225.34 2892.76L897.768 3066.25Z" stroke="#FFFFFF" stroke-width="6.875" stroke-linejoin="round" stroke-miterlimit="10" fill="#A5A5A5" fill-rule="evenodd"/></g><g clip-path="url(#clip4)"><path d="M1225.34 2892.76C1235.85 2912.61 1244.54 2933.38 1251.29 2954.8L897.768 3066.25Z" stroke="#FFFFFF" stroke-width="6.875" stroke-linejoin="round" stroke-miterlimit="10" fill="#FFC000" fill-rule="evenodd"/></g><g clip-path="url(#clip5)"><path d="M1251.29 2954.8C1269.3 3011.92 1273.2 3072.55 1262.66 3131.51L897.768 3066.25Z" stroke="#FFFFFF" stroke-width="6.875" stroke-linejoin="round" stroke-miterlimit="10" fill="#5B9BD5" fill-rule="evenodd"/></g><g clip-path="url(#clip6)"><path d="M1262.66 3131.51C1258.02 3157.44 1250.63 3182.8 1240.62 3207.16L897.768 3066.25Z" stroke="#FFFFFF" stroke-width="6.875" stroke-linejoin="round" stroke-miterlimit="10" fill="#70AD47" fill-rule="evenodd"/></g><g clip-path="url(#clip7)"><path d="M1240.62 3207.16C1218.74 3260.38 1184.79 3307.77 1141.43 3345.59L897.768 3066.25Z" stroke="#FFFFFF" stroke-width="6.875" stroke-linejoin="round" stroke-miterlimit="10" fill="#264478" fill-rule="evenodd"/></g><g clip-path="url(#clip8)"><path d="M1141.43 3345.59C1131.51 3354.24 1121.14 3362.36 1110.35 3369.91L897.768 3066.25Z" stroke="#FFFFFF" stroke-width="6.875" stroke-linejoin="round" stroke-miterlimit="10" fill="#9E480E" fill-rule="evenodd"/></g><g clip-path="url(#clip9)"><path d="M1110.35 3369.91C1053.55 3409.67 986.736 3432.71 917.497 3436.4L897.768 3066.25Z" stroke="#FFFFFF" stroke-width="6.875" stroke-linejoin="round" stroke-miterlimit="10" fill="#636363" fill-rule="evenodd"/></g><g clip-path="url(#clip10)"><path d="M917.496 3436.4C905.127 3437.06 892.732 3437.1 880.359 3436.52L897.768 3066.25Z" stroke="#FFFFFF" stroke-width="6.875" stroke-linejoin="round" stroke-miterlimit="10" fill="#997300" fill-rule="evenodd"/></g><g clip-path="url(#clip11)"><path d="M880.359 3436.52C811.098 3433.26 744.139 3410.64 687.089 3371.23L897.768 3066.25Z" stroke="#FFFFFF" stroke-width="6.875" stroke-linejoin="round" stroke-miterlimit="10" fill="#255E91" fill-rule="evenodd"/></g><g clip-path="url(#clip12)"><path d="M687.089 3371.24C681.994 3367.72 676.988 3364.07 672.076 3360.3L897.768 3066.25Z" stroke="#FFFFFF" stroke-width="6.875" stroke-linejoin="round" stroke-miterlimit="10" fill="#43682B" fill-rule="evenodd"/></g><g clip-path="url(#clip13)"><path d="M672.076 3360.3C620.824 3320.96 580.744 3268.91 555.809 3209.31L897.768 3066.25Z" stroke="#FFFFFF" stroke-width="6.875" stroke-linejoin="round" stroke-miterlimit="10" fill="#698ED0" fill-rule="evenodd"/></g><g clip-path="url(#clip14)"><path d="M555.809 3209.31C539.338 3169.94 529.79 3128.02 527.586 3085.4L897.768 3066.25Z" stroke="#FFFFFF" stroke-width="6.875" stroke-linejoin="round" stroke-miterlimit="10" fill="#F1975A" fill-rule="evenodd"/></g><g clip-path="url(#clip15)"><path d="M527.586 3085.4C525.582 3046.67 529.669 3007.87 539.696 2970.41L897.768 3066.25Z" stroke="#FFFFFF" stroke-width="6.875" stroke-linejoin="round" stroke-miterlimit="10" fill="#B7B7B7" fill-rule="evenodd"/></g><g clip-path="url(#clip16)"><path d="M539.697 2970.41C542.299 2960.68 545.296 2951.07 548.68 2941.59L897.768 3066.25Z" stroke="#FFFFFF" stroke-width="6.875" stroke-linejoin="round" stroke-miterlimit="10" fill="#FFCD33" fill-rule="evenodd"/></g><g clip-path="url(#clip17)"><path d="M548.68 2941.59C570.937 2879.27 609.475 2824.03 660.293 2781.63L897.768 3066.25Z" stroke="#FFFFFF" stroke-width="6.875" stroke-linejoin="round" stroke-miterlimit="10" fill="#7CAFDD" fill-rule="evenodd"/></g><g clip-path="url(#clip18)"><path d="M660.293 2781.63C667.426 2775.68 674.78 2770 682.339 2764.6L897.768 3066.25Z" stroke="#FFFFFF" stroke-width="6.875" stroke-linejoin="round" stroke-miterlimit="10" fill="#8CC168" fill-rule="evenodd"/></g><g clip-path="url(#clip19)"><path d="M682.339 2764.6C731.077 2729.79 787.522 2707.31 846.844 2699.09L897.768 3066.25Z" stroke="#FFFFFF" stroke-width="6.875" stroke-linejoin="round" stroke-miterlimit="10" fill="#335AA1" fill-rule="evenodd"/></g><g clip-path="url(#clip20)"><path d="M846.844 2699.09C863.718 2696.75 880.733 2695.57 897.768 2695.57L897.768 3066.25Z" stroke="#FFFFFF" stroke-width="6.875" stroke-linejoin="round" stroke-miterlimit="10" fill="#D26012" fill-rule="evenodd"/></g><g clip-path="url(#clip21)"><text fill="#404040" font-family="Calibri,Calibri_MSFontService,sans-serif" font-weight="400" font-size="48" transform="matrix(1 0 0 1 896.5 2782)">6.60%</text></g><g clip-path="url(#clip22)"><text fill="#404040" font-family="Calibri,Calibri_MSFontService,sans-serif" font-weight="400" font-size="48" transform="matrix(1 0 0 1 1064.94 2700)">1%</text></g><g clip-path="url(#clip23)"><text fill="#404040" font-family="Calibri,Calibri_MSFontService,sans-serif" font-weight="400" font-size="48" transform="matrix(1 0 0 1 1044.31 2885)">9.70%</text></g><g clip-path="url(#clip24)"><text fill="#404040" font-family="Calibri,Calibri_MSFontService,sans-serif" font-weight="400" font-size="48" transform="matrix(1 0 0 1 1257.44 2930)">2.90%</text></g><g clip-path="url(#clip25)"><text fill="#404040" font-family="Calibri,Calibri_MSFontService,sans-serif" font-weight="400" font-size="48" transform="matrix(1 0 0 1 1126.81 3071)">7.70%</text></g><g clip-path="url(#clip26)"><text fill="#404040" font-family="Calibri,Calibri_MSFontService,sans-serif" font-weight="400" font-size="48" transform="matrix(1 0 0 1 1260.88 3191)">3.40%</text></g><g clip-path="url(#clip27)"><text fill="#404040" font-family="Calibri,Calibri_MSFontService,sans-serif" font-weight="400" font-size="48" transform="matrix(1 0 0 1 1075.25 3246)">7.40%</text></g><g clip-path="url(#clip28)"><text fill="#404040" font-family="Calibri,Calibri_MSFontService,sans-serif" font-weight="400" font-size="48" transform="matrix(1 0 0 1 1130.25 3415)">1.70%</text></g><g clip-path="url(#clip29)"><text fill="#404040" font-family="Calibri,Calibri_MSFontService,sans-serif" font-weight="400" font-size="48" transform="matrix(1 0 0 1 934.313 3370)">8.90%</text></g><g clip-path="url(#clip30)"><text fill="#404040" font-family="Calibri,Calibri_MSFontService,sans-serif" font-weight="400" font-size="48" transform="matrix(1 0 0 1 838.063 3494)">1.60%</text></g><g clip-path="url(#clip31)"><text fill="#404040" font-family="Calibri,Calibri_MSFontService,sans-serif" font-weight="400" font-size="48" transform="matrix(1 0 0 1 741.813 3373)">8.90%</text></g><g clip-path="url(#clip32)"><text fill="#404040" font-family="Calibri,Calibri_MSFontService,sans-serif" font-weight="400" font-size="48" transform="matrix(1 0 0 1 552.75 3422)">0.80%</text></g><g clip-path="url(#clip33)"><text fill="#404040" font-family="Calibri,Calibri_MSFontService,sans-serif" font-weight="400" font-size="48" transform="matrix(1 0 0 1 604.313 3253)">8.30%</text></g><g clip-path="url(#clip34)"><text fill="#404040" font-family="Calibri,Calibri_MSFontService,sans-serif" font-weight="400" font-size="48" transform="matrix(1 0 0 1 552.75 3140)">5.50%</text></g><g clip-path="url(#clip35)"><text fill="#404040" font-family="Calibri,Calibri_MSFontService,sans-serif" font-weight="400" font-size="48" transform="matrix(1 0 0 1 549.312 3054)">5%</text></g><g clip-path="url(#clip36)"><text fill="#404040" font-family="Calibri,Calibri_MSFontService,sans-serif" font-weight="400" font-size="48" transform="matrix(1 0 0 1 411.813 2944)">1.30%</text></g><g clip-path="url(#clip37)"><text fill="#404040" font-family="Calibri,Calibri_MSFontService,sans-serif" font-weight="400" font-size="48" transform="matrix(1 0 0 1 597.438 2927)">8.50%</text></g><g clip-path="url(#clip38)"><text fill="#404040" font-family="Calibri,Calibri_MSFontService,sans-serif" font-weight="400" font-size="48" transform="matrix(1 0 0 1 542.438 2755)">1.20%</text></g><g clip-path="url(#clip39)"><text fill="#404040" font-family="Calibri,Calibri_MSFontService,sans-serif" font-weight="400" font-size="48" transform="matrix(1 0 0 1 724.625 2803)">7.70%</text></g><g clip-path="url(#clip40)"><text fill="#404040" font-family="Calibri,Calibri_MSFontService,sans-serif" font-weight="400" font-size="48" transform="matrix(1 0 0 1 810.563 2676)">2.20%</text></g><g clip-path="url(#clip41)"><rect x="1539.5" y="2639.5" width="22.9996" height="22.9998" stroke="#FFFFFF" stroke-width="6.875" stroke-linejoin="round" stroke-miterlimit="10" fill="#4472C4"/></g><g clip-path="url(#clip42)"><text fill="#595959" font-family="DengXian,DengXian_MSFontService,sans-serif" font-weight="400" font-size="41" transform="matrix(1 0 0 1 1571.69 2661)">物体数为</text></g><g clip-path="url(#clip43)"><text fill="#595959" font-family="Calibri,Calibri_MSFontService,sans-serif" font-weight="400" font-size="41" transform="matrix(1 0 0 1 1736.69 2661)">5</text></g><g clip-path="url(#clip44)"><text fill="#595959" font-family="DengXian,DengXian_MSFontService,sans-serif" font-weight="400" font-size="41" transform="matrix(1 0 0 1 1757.59 2661)">，颜色</text></g><g clip-path="url(#clip45)"><rect x="1539.5" y="2717.5" width="22.9996" height="22" stroke="#FFFFFF" stroke-width="6.875" stroke-linejoin="round" stroke-miterlimit="10" fill="#ED7D31"/></g><g clip-path="url(#clip46)"><text fill="#595959" font-family="DengXian,DengXian_MSFontService,sans-serif" font-weight="400" font-size="41" transform="matrix(1 0 0 1 1571.69 2738)">物体数为</text></g><g clip-path="url(#clip47)"><text fill="#595959" font-family="Calibri,Calibri_MSFontService,sans-serif" font-weight="400" font-size="41" transform="matrix(1 0 0 1 1736.69 2738)">5</text></g><g clip-path="url(#clip48)"><text fill="#595959" font-family="DengXian,DengXian_MSFontService,sans-serif" font-weight="400" font-size="41" transform="matrix(1 0 0 1 1757.59 2738)">，大小</text></g><g clip-path="url(#clip49)"><rect x="1539.5" y="2794.5" width="22.9996" height="23" stroke="#FFFFFF" stroke-width="6.875" stroke-linejoin="round" stroke-miterlimit="10" fill="#A5A5A5"/></g><g clip-path="url(#clip50)"><text fill="#595959" font-family="DengXian,DengXian_MSFontService,sans-serif" font-weight="400" font-size="41" transform="matrix(1 0 0 1 1571.69 2816)">物体数为</text></g><g clip-path="url(#clip51)"><text fill="#595959" font-family="Calibri,Calibri_MSFontService,sans-serif" font-weight="400" font-size="41" transform="matrix(1 0 0 1 1736.69 2816)">5</text></g><g clip-path="url(#clip52)"><text fill="#595959" font-family="DengXian,DengXian_MSFontService,sans-serif" font-weight="400" font-size="41" transform="matrix(1 0 0 1 1757.59 2816)">，形状</text></g><g clip-path="url(#clip53)"><rect x="1539.5" y="2871.5" width="22.9996" height="23" stroke="#FFFFFF" stroke-width="6.875" stroke-linejoin="round" stroke-miterlimit="10" fill="#FFC000"/></g><g clip-path="url(#clip54)"><text fill="#595959" font-family="DengXian,DengXian_MSFontService,sans-serif" font-weight="400" font-size="41" transform="matrix(1 0 0 1 1571.69 2893)">物体数为</text></g><g clip-path="url(#clip55)"><text fill="#595959" font-family="Calibri,Calibri_MSFontService,sans-serif" font-weight="400" font-size="41" transform="matrix(1 0 0 1 1736.69 2893)">5</text></g><g clip-path="url(#clip56)"><text fill="#595959" font-family="DengXian,DengXian_MSFontService,sans-serif" font-weight="400" font-size="41" transform="matrix(1 0 0 1 1757.59 2893)">，材质</text></g><g clip-path="url(#clip57)"><rect x="1539.5" y="2949.5" width="22.9996" height="22" stroke="#FFFFFF" stroke-width="6.875" stroke-linejoin="round" stroke-miterlimit="10" fill="#5B9BD5"/></g><g clip-path="url(#clip58)"><text fill="#595959" font-family="DengXian,DengXian_MSFontService,sans-serif" font-weight="400" font-size="41" transform="matrix(1 0 0 1 1571.69 2970)">物体数为</text></g><g clip-path="url(#clip59)"><text fill="#595959" font-family="Calibri,Calibri_MSFontService,sans-serif" font-weight="400" font-size="41" transform="matrix(1 0 0 1 1736.69 2970)">6</text></g><g clip-path="url(#clip60)"><text fill="#595959" font-family="DengXian,DengXian_MSFontService,sans-serif" font-weight="400" font-size="41" transform="matrix(1 0 0 1 1757.59 2970)">，颜色</text></g><g clip-path="url(#clip61)"><rect x="1539.5" y="3026.5" width="22.9996" height="23" stroke="#FFFFFF" stroke-width="6.875" stroke-linejoin="round" stroke-miterlimit="10" fill="#70AD47"/></g><g clip-path="url(#clip62)"><text fill="#595959" font-family="DengXian,DengXian_MSFontService,sans-serif" font-weight="400" font-size="41" transform="matrix(1 0 0 1 1571.69 3048)">物体数为</text></g><g clip-path="url(#clip63)"><text fill="#595959" font-family="Calibri,Calibri_MSFontService,sans-serif" font-weight="400" font-size="41" transform="matrix(1 0 0 1 1736.69 3048)">6</text></g><g clip-path="url(#clip64)"><text fill="#595959" font-family="DengXian,DengXian_MSFontService,sans-serif" font-weight="400" font-size="41" transform="matrix(1 0 0 1 1757.59 3048)">，大小</text></g><g clip-path="url(#clip65)"><rect x="1539.5" y="3103.5" width="22.9996" height="23" stroke="#FFFFFF" stroke-width="6.875" stroke-linejoin="round" stroke-miterlimit="10" fill="#264478"/></g><g clip-path="url(#clip66)"><text fill="#595959" font-family="DengXian,DengXian_MSFontService,sans-serif" font-weight="400" font-size="41" transform="matrix(1 0 0 1 1571.69 3125)">物体数为</text></g><g clip-path="url(#clip67)"><text fill="#595959" font-family="Calibri,Calibri_MSFontService,sans-serif" font-weight="400" font-size="41" transform="matrix(1 0 0 1 1736.69 3125)">6</text></g><g clip-path="url(#clip68)"><text fill="#595959" font-family="DengXian,DengXian_MSFontService,sans-serif" font-weight="400" font-size="41" transform="matrix(1 0 0 1 1757.59 3125)">，形状</text></g><g clip-path="url(#clip69)"><rect x="1539.5" y="3181.5" width="22.9996" height="22" stroke="#FFFFFF" stroke-width="6.875" stroke-linejoin="round" stroke-miterlimit="10" fill="#9E480E"/></g><g clip-path="url(#clip70)"><text fill="#595959" font-family="DengXian,DengXian_MSFontService,sans-serif" font-weight="400" font-size="41" transform="matrix(1 0 0 1 1571.69 3202)">物体数为</text></g><g clip-path="url(#clip71)"><text fill="#595959" font-family="Calibri,Calibri_MSFontService,sans-serif" font-weight="400" font-size="41" transform="matrix(1 0 0 1 1736.69 3202)">6</text></g><g clip-path="url(#clip72)"><text fill="#595959" font-family="DengXian,DengXian_MSFontService,sans-serif" font-weight="400" font-size="41" transform="matrix(1 0 0 1 1757.59 3202)">，材质</text></g><g clip-path="url(#clip73)"><rect x="1539.5" y="3258.5" width="22.9996" height="23" stroke="#FFFFFF" stroke-width="6.875" stroke-linejoin="round" stroke-miterlimit="10" fill="#636363"/></g><g clip-path="url(#clip74)"><text fill="#595959" font-family="DengXian,DengXian_MSFontService,sans-serif" font-weight="400" font-size="41" transform="matrix(1 0 0 1 1571.69 3280)">物体数为</text></g><g clip-path="url(#clip75)"><text fill="#595959" font-family="Calibri,Calibri_MSFontService,sans-serif" font-weight="400" font-size="41" transform="matrix(1 0 0 1 1736.69 3280)">7</text></g><g clip-path="url(#clip76)"><text fill="#595959" font-family="DengXian,DengXian_MSFontService,sans-serif" font-weight="400" font-size="41" transform="matrix(1 0 0 1 1757.59 3280)">，颜色</text></g><g clip-path="url(#clip77)"><rect x="1539.5" y="3335.5" width="22.9996" height="23" stroke="#FFFFFF" stroke-width="6.875" stroke-linejoin="round" stroke-miterlimit="10" fill="#997300"/></g><g clip-path="url(#clip78)"><text fill="#595959" font-family="DengXian,DengXian_MSFontService,sans-serif" font-weight="400" font-size="41" transform="matrix(1 0 0 1 1571.69 3357)">物体数为</text></g><g clip-path="url(#clip79)"><text fill="#595959" font-family="Calibri,Calibri_MSFontService,sans-serif" font-weight="400" font-size="41" transform="matrix(1 0 0 1 1736.69 3357)">7</text></g><g clip-path="url(#clip80)"><text fill="#595959" font-family="DengXian,DengXian_MSFontService,sans-serif" font-weight="400" font-size="41" transform="matrix(1 0 0 1 1757.59 3357)">，大小</text></g><g clip-path="url(#clip81)"><rect x="1539.5" y="3413.5" width="22.9996" height="22" stroke="#FFFFFF" stroke-width="6.875" stroke-linejoin="round" stroke-miterlimit="10" fill="#255E91"/></g><g clip-path="url(#clip82)"><text fill="#595959" font-family="DengXian,DengXian_MSFontService,sans-serif" font-weight="400" font-size="41" transform="matrix(1 0 0 1 1571.69 3434)">物体数为</text></g><g clip-path="url(#clip83)"><text fill="#595959" font-family="Calibri,Calibri_MSFontService,sans-serif" font-weight="400" font-size="41" transform="matrix(1 0 0 1 1736.69 3434)">7</text></g><g clip-path="url(#clip84)"><text fill="#595959" font-family="DengXian,DengXian_MSFontService,sans-serif" font-weight="400" font-size="41" transform="matrix(1 0 0 1 1757.59 3434)">，形状</text></g><rect x="278.5" y="2558.5" width="1650" height="989" stroke="#D9D9D9" stroke-width="3.4375" stroke-linejoin="round" stroke-miterlimit="10" fill="none"/></g></svg>