<svg width="1653" height="993" xmlns="http://www.w3.org/2000/svg" xmlns:xlink="http://www.w3.org/1999/xlink" overflow="hidden"><defs><clipPath id="clip0"><rect x="2408" y="222" width="1653" height="993"/></clipPath><clipPath id="clip1"><rect x="2409" y="222" width="1650" height="990"/></clipPath><clipPath id="clip2"><rect x="2409" y="222" width="1650" height="990"/></clipPath><clipPath id="clip3"><rect x="2409" y="222" width="1650" height="990"/></clipPath><clipPath id="clip4"><rect x="2409" y="222" width="1650" height="990"/></clipPath><clipPath id="clip5"><rect x="2409" y="222" width="1650" height="990"/></clipPath><clipPath id="clip6"><rect x="2409" y="222" width="1650" height="990"/></clipPath><clipPath id="clip7"><rect x="2409" y="222" width="1650" height="990"/></clipPath><clipPath id="clip8"><rect x="2409" y="222" width="1650" height="990"/></clipPath><clipPath id="clip9"><rect x="2409" y="222" width="1650" height="990"/></clipPath><clipPath id="clip10"><rect x="2409" y="222" width="1650" height="990"/></clipPath><clipPath id="clip11"><rect x="2409" y="222" width="1650" height="990"/></clipPath><clipPath id="clip12"><rect x="2409" y="222" width="1650" height="990"/></clipPath><clipPath id="clip13"><rect x="2409" y="222" width="1650" height="990"/></clipPath><clipPath id="clip14"><rect x="2409" y="222" width="1650" height="990"/></clipPath><clipPath id="clip15"><rect x="2409" y="222" width="1650" height="990"/></clipPath><clipPath id="clip16"><rect x="2409" y="222" width="1650" height="990"/></clipPath></defs><g clip-path="url(#clip0)" transform="translate(-2408 -222)"><rect x="2409" y="223" width="1650" height="990" fill="#FFFFFF"/><g clip-path="url(#clip1)"><path d="M3234 273.167C3450.58 273.167 3626.16 448.743 3626.16 665.328 3626.16 782.206 3574.03 892.992 3483.97 967.493L3234 665.328Z" stroke="#FFFFFF" stroke-width="6.875" stroke-linejoin="round" stroke-miterlimit="10" fill="#4472C4" fill-rule="evenodd"/></g><g clip-path="url(#clip2)"><path d="M3483.97 967.494C3317.09 1105.55 3069.89 1082.18 2931.83 915.301 2864.99 834.504 2833.29 730.302 2843.82 625.97L3234 665.328Z" stroke="#FFFFFF" stroke-width="6.875" stroke-linejoin="round" stroke-miterlimit="10" fill="#ED7D31" fill-rule="evenodd"/></g><g clip-path="url(#clip3)"><path d="M2843.82 625.97C2852.38 541.057 2888.42 461.256 2946.45 398.677L3234 665.328Z" stroke="#FFFFFF" stroke-width="6.875" stroke-linejoin="round" stroke-miterlimit="10" fill="#A5A5A5" fill-rule="evenodd"/></g><g clip-path="url(#clip4)"><path d="M2946.45 398.676C3020.66 318.648 3124.86 273.166 3234 273.166L3234 665.328Z" stroke="#FFFFFF" stroke-width="6.875" stroke-linejoin="round" stroke-miterlimit="10" fill="#FFC000" fill-rule="evenodd"/></g><g clip-path="url(#clip5)"><text font-family="Calibri,Calibri_MSFontService,sans-serif" font-weight="400" font-size="55" transform="matrix(1 0 0 1 3370.96 617)">39%</text></g><g clip-path="url(#clip6)"><text font-family="Calibri,Calibri_MSFontService,sans-serif" font-weight="400" font-size="55" transform="matrix(1 0 0 1 3059.36 857)">37.60%</text></g><g clip-path="url(#clip7)"><text font-family="Calibri,Calibri_MSFontService,sans-serif" font-weight="400" font-size="55" transform="matrix(1 0 0 1 2899.62 580)">10.30%</text></g><g clip-path="url(#clip8)"><text font-family="Calibri,Calibri_MSFontService,sans-serif" font-weight="400" font-size="55" transform="matrix(1 0 0 1 3027.39 417)">13.10%</text></g><g clip-path="url(#clip9)"><rect x="2962.5" y="1135.5" width="23" height="22" stroke="#FFFFFF" stroke-width="6.875" stroke-linejoin="round" stroke-miterlimit="10" fill="#4472C4"/></g><g clip-path="url(#clip10)"><text fill="#595959" font-family="DengXian,DengXian_MSFontService,sans-serif" font-weight="400" font-size="41" transform="matrix(1 0 0 1 2994.73 1156)">颜色</text></g><g clip-path="url(#clip11)"><rect x="3110.5" y="1135.5" width="23" height="22" stroke="#FFFFFF" stroke-width="6.875" stroke-linejoin="round" stroke-miterlimit="10" fill="#ED7D31"/></g><g clip-path="url(#clip12)"><text fill="#595959" font-family="DengXian,DengXian_MSFontService,sans-serif" font-weight="400" font-size="41" transform="matrix(1 0 0 1 3142.99 1156)">形状</text></g><g clip-path="url(#clip13)"><rect x="3258.5" y="1135.5" width="23" height="22" stroke="#FFFFFF" stroke-width="6.875" stroke-linejoin="round" stroke-miterlimit="10" fill="#A5A5A5"/></g><g clip-path="url(#clip14)"><text fill="#595959" font-family="DengXian,DengXian_MSFontService,sans-serif" font-weight="400" font-size="41" transform="matrix(1 0 0 1 3291.26 1156)">材质</text></g><g clip-path="url(#clip15)"><rect x="3407.5" y="1135.5" width="22" height="22" stroke="#FFFFFF" stroke-width="6.875" stroke-linejoin="round" stroke-miterlimit="10" fill="#FFC000"/></g><g clip-path="url(#clip16)"><text fill="#595959" font-family="DengXian,DengXian_MSFontService,sans-serif" font-weight="400" font-size="41" transform="matrix(1 0 0 1 3439.52 1156)">大小</text></g><rect x="2409.5" y="223.5" width="1650" height="990" stroke="#D9D9D9" stroke-width="3.4375" stroke-linejoin="round" stroke-miterlimit="10" fill="none"/></g></svg>