<svg width="1652" height="993" xmlns="http://www.w3.org/2000/svg" xmlns:xlink="http://www.w3.org/1999/xlink" overflow="hidden"><defs><clipPath id="clip0"><rect x="1897" y="167" width="1652" height="993"/></clipPath><clipPath id="clip1"><rect x="1897" y="167" width="1650" height="990"/></clipPath><clipPath id="clip2"><rect x="1897" y="167" width="1650" height="990"/></clipPath><clipPath id="clip3"><rect x="1897" y="167" width="1650" height="990"/></clipPath><clipPath id="clip4"><rect x="1897" y="167" width="1650" height="990"/></clipPath><clipPath id="clip5"><rect x="1897" y="167" width="1650" height="990"/></clipPath><clipPath id="clip6"><rect x="1897" y="167" width="1650" height="990"/></clipPath><clipPath id="clip7"><rect x="1897" y="167" width="1650" height="990"/></clipPath><clipPath id="clip8"><rect x="1897" y="167" width="1650" height="990"/></clipPath><clipPath id="clip9"><rect x="1897" y="167" width="1650" height="990"/></clipPath><clipPath id="clip10"><rect x="1897" y="167" width="1650" height="990"/></clipPath><clipPath id="clip11"><rect x="1897" y="167" width="1650" height="990"/></clipPath><clipPath id="clip12"><rect x="1897" y="167" width="1650" height="990"/></clipPath><clipPath id="clip13"><rect x="1897" y="167" width="1650" height="990"/></clipPath><clipPath id="clip14"><rect x="1897" y="167" width="1650" height="990"/></clipPath><clipPath id="clip15"><rect x="1897" y="167" width="1650" height="990"/></clipPath><clipPath id="clip16"><rect x="1897" y="167" width="1650" height="990"/></clipPath><clipPath id="clip17"><rect x="1897" y="167" width="1650" height="990"/></clipPath><clipPath id="clip18"><rect x="1897" y="167" width="1650" height="990"/></clipPath><clipPath id="clip19"><rect x="1897" y="167" width="1650" height="990"/></clipPath><clipPath id="clip20"><rect x="1897" y="167" width="1650" height="990"/></clipPath><clipPath id="clip21"><rect x="1897" y="167" width="1650" height="990"/></clipPath><clipPath id="clip22"><rect x="1897" y="167" width="1650" height="990"/></clipPath><clipPath id="clip23"><rect x="1897" y="167" width="1650" height="990"/></clipPath><clipPath id="clip24"><rect x="1897" y="167" width="1650" height="990"/></clipPath><clipPath id="clip25"><rect x="1897" y="167" width="1650" height="990"/></clipPath><clipPath id="clip26"><rect x="1897" y="167" width="1650" height="990"/></clipPath><clipPath id="clip27"><rect x="1897" y="167" width="1650" height="990"/></clipPath><clipPath id="clip28"><rect x="1897" y="167" width="1650" height="990"/></clipPath></defs><g clip-path="url(#clip0)" transform="translate(-1897 -167)"><rect x="1898" y="168" width="1649" height="990" fill="#FFFFFF"/><g clip-path="url(#clip1)"><path d="M2722.5 269.084C2891.5 269.084 3028.51 406.089 3028.51 575.093 3028.51 640.799 3007.36 704.76 2968.19 757.515L2722.5 575.093Z" stroke="#FFFFFF" stroke-width="6.875" stroke-linejoin="round" stroke-miterlimit="10" fill="#4472C4" fill-rule="evenodd"/></g><g clip-path="url(#clip2)"><path d="M2968.19 757.515C2903.77 844.283 2798.35 890.635 2690.86 879.463L2722.5 575.093Z" stroke="#FFFFFF" stroke-width="6.875" stroke-linejoin="round" stroke-miterlimit="10" fill="#ED7D31" fill-rule="evenodd"/></g><g clip-path="url(#clip3)"><path d="M2690.86 879.462C2612.21 871.287 2539.77 832.978 2488.74 772.567L2722.5 575.093Z" stroke="#FFFFFF" stroke-width="6.875" stroke-linejoin="round" stroke-miterlimit="10" fill="#A5A5A5" fill-rule="evenodd"/></g><g clip-path="url(#clip4)"><path d="M2488.74 772.567C2433.83 707.577 2408.47 622.664 2418.72 538.208L2722.5 575.093Z" stroke="#FFFFFF" stroke-width="6.875" stroke-linejoin="round" stroke-miterlimit="10" fill="#FFC000" fill-rule="evenodd"/></g><g clip-path="url(#clip5)"><path d="M2418.72 538.208C2430.93 437.701 2492.05 349.736 2581.99 303.249L2722.5 575.093Z" stroke="#FFFFFF" stroke-width="6.875" stroke-linejoin="round" stroke-miterlimit="10" fill="#5B9BD5" fill-rule="evenodd"/></g><g clip-path="url(#clip6)"><path d="M2581.99 303.249C2625.43 280.799 2673.61 269.084 2722.5 269.084L2722.5 575.093Z" stroke="#FFFFFF" stroke-width="6.875" stroke-linejoin="round" stroke-miterlimit="10" fill="#70AD47" fill-rule="evenodd"/></g><g clip-path="url(#clip7)"><text font-family="Calibri,Calibri_MSFontService,sans-serif" font-weight="400" font-size="50" transform="matrix(1 0 0 1 2832.5 508)">35.20%</text></g><g clip-path="url(#clip8)"><text font-family="Calibri,Calibri_MSFontService,sans-serif" font-weight="400" font-size="50" transform="matrix(1 0 0 1 2739.69 793)">16.50%</text></g><g clip-path="url(#clip9)"><text font-family="Calibri,Calibri_MSFontService,sans-serif" font-weight="400" font-size="50" transform="matrix(1 0 0 1 2540.31 786)">12.20%</text></g><g clip-path="url(#clip10)"><text font-family="Calibri,Calibri_MSFontService,sans-serif" font-weight="400" font-size="50" transform="matrix(1 0 0 1 2440.62 635)">13.10%</text></g><g clip-path="url(#clip11)"><text font-family="Calibri,Calibri_MSFontService,sans-serif" font-weight="400" font-size="50" transform="matrix(1 0 0 1 2464.69 498)">15.50%</text></g><g clip-path="url(#clip12)"><text font-family="Calibri,Calibri_MSFontService,sans-serif" font-weight="400" font-size="50" transform="matrix(1 0 0 1 2585 257)">7.60%</text></g><g clip-path="url(#clip13)"><rect x="2146.5" y="1009.5" width="23" height="23" stroke="#FFFFFF" stroke-width="6.875" stroke-linejoin="round" stroke-miterlimit="10" fill="#4472C4"/></g><g clip-path="url(#clip14)"><text fill="#595959" font-family="DengXian,DengXian_MSFontService,sans-serif" font-weight="400" font-size="41" transform="matrix(1 0 0 1 2178.86 1031)">“与</text></g><g clip-path="url(#clip15)"><text fill="#595959" font-family="Calibri,Calibri_MSFontService,sans-serif" font-weight="400" font-size="41" transform="matrix(1 0 0 1 2234.8 1031)">…</text></g><g clip-path="url(#clip16)"><text fill="#595959" font-family="DengXian,DengXian_MSFontService,sans-serif" font-weight="400" font-size="41" transform="matrix(1 0 0 1 2263.28 1031)">相同</text></g><g clip-path="url(#clip17)"><text fill="#595959" font-family="Calibri,Calibri_MSFontService,sans-serif" font-weight="400" font-size="41" transform="matrix(1 0 0 1 2345.78 1031)">"</text></g><g clip-path="url(#clip18)"><text fill="#595959" font-family="DengXian,DengXian_MSFontService,sans-serif" font-weight="400" font-size="41" transform="matrix(1 0 0 1 2362.33 1031)">问题模板</text></g><g clip-path="url(#clip19)"><rect x="2540.5" y="1009.5" width="22.9998" height="23" stroke="#FFFFFF" stroke-width="6.875" stroke-linejoin="round" stroke-miterlimit="10" fill="#ED7D31"/></g><g clip-path="url(#clip20)"><text fill="#595959" font-family="DengXian,DengXian_MSFontService,sans-serif" font-weight="400" font-size="41" transform="matrix(1 0 0 1 2572.64 1031)">属性问题模板</text></g><g clip-path="url(#clip21)"><rect x="2934.5" y="1009.5" width="22" height="23" stroke="#FFFFFF" stroke-width="6.875" stroke-linejoin="round" stroke-miterlimit="10" fill="#A5A5A5"/></g><g clip-path="url(#clip22)"><text fill="#595959" font-family="DengXian,DengXian_MSFontService,sans-serif" font-weight="400" font-size="41" transform="matrix(1 0 0 1 2966.42 1031)">三跳问题模板</text></g><g clip-path="url(#clip23)"><rect x="2146.5" y="1087.5" width="23" height="22" stroke="#FFFFFF" stroke-width="6.875" stroke-linejoin="round" stroke-miterlimit="10" fill="#FFC000"/></g><g clip-path="url(#clip24)"><text fill="#595959" font-family="DengXian,DengXian_MSFontService,sans-serif" font-weight="400" font-size="41" transform="matrix(1 0 0 1 2178.86 1108)">两跳问题模板</text></g><g clip-path="url(#clip25)"><rect x="2540.5" y="1087.5" width="22.9998" height="22" stroke="#FFFFFF" stroke-width="6.875" stroke-linejoin="round" stroke-miterlimit="10" fill="#5B9BD5"/></g><g clip-path="url(#clip26)"><text fill="#595959" font-family="DengXian,DengXian_MSFontService,sans-serif" font-weight="400" font-size="41" transform="matrix(1 0 0 1 2572.64 1108)">一跳问题模板</text></g><g clip-path="url(#clip27)"><rect x="2934.5" y="1087.5" width="22" height="22" stroke="#FFFFFF" stroke-width="6.875" stroke-linejoin="round" stroke-miterlimit="10" fill="#70AD47"/></g><g clip-path="url(#clip28)"><text fill="#595959" font-family="DengXian,DengXian_MSFontService,sans-serif" font-weight="400" font-size="41" transform="matrix(1 0 0 1 2966.42 1108)">零跳问题模板</text></g><rect x="1898.5" y="168.5" width="1649" height="990" stroke="#D9D9D9" stroke-width="3.4375" stroke-linejoin="round" stroke-miterlimit="10" fill="none"/></g></svg>