<svg width="1652" height="992" xmlns="http://www.w3.org/2000/svg" xmlns:xlink="http://www.w3.org/1999/xlink" overflow="hidden"><defs><clipPath id="clip0"><rect x="1985" y="2227" width="1652" height="992"/></clipPath><clipPath id="clip1"><rect x="1985" y="2227" width="1650" height="990"/></clipPath><clipPath id="clip2"><rect x="1985" y="2227" width="1650" height="990"/></clipPath><clipPath id="clip3"><rect x="1985" y="2227" width="1650" height="990"/></clipPath><clipPath id="clip4"><rect x="1985" y="2227" width="1650" height="990"/></clipPath><clipPath id="clip5"><rect x="1985" y="2227" width="1650" height="990"/></clipPath><clipPath id="clip6"><rect x="1985" y="2227" width="1650" height="990"/></clipPath><clipPath id="clip7"><rect x="1985" y="2227" width="1650" height="990"/></clipPath><clipPath id="clip8"><rect x="1985" y="2227" width="1650" height="990"/></clipPath><clipPath id="clip9"><rect x="1985" y="2227" width="1650" height="990"/></clipPath><clipPath id="clip10"><rect x="1985" y="2227" width="1650" height="990"/></clipPath><clipPath id="clip11"><rect x="1985" y="2227" width="1650" height="990"/></clipPath><clipPath id="clip12"><rect x="1985" y="2227" width="1650" height="990"/></clipPath><clipPath id="clip13"><rect x="1985" y="2227" width="1650" height="990"/></clipPath><clipPath id="clip14"><rect x="1985" y="2227" width="1650" height="990"/></clipPath><clipPath id="clip15"><rect x="1985" y="2227" width="1650" height="990"/></clipPath><clipPath id="clip16"><rect x="1985" y="2227" width="1650" height="990"/></clipPath><clipPath id="clip17"><rect x="1985" y="2227" width="1650" height="990"/></clipPath><clipPath id="clip18"><rect x="1985" y="2227" width="1650" height="990"/></clipPath><clipPath id="clip19"><rect x="1985" y="2227" width="1650" height="990"/></clipPath><clipPath id="clip20"><rect x="1985" y="2227" width="1650" height="990"/></clipPath><clipPath id="clip21"><rect x="1985" y="2227" width="1650" height="990"/></clipPath><clipPath id="clip22"><rect x="1985" y="2227" width="1650" height="990"/></clipPath><clipPath id="clip23"><rect x="1985" y="2227" width="1650" height="990"/></clipPath><clipPath id="clip24"><rect x="1985" y="2227" width="1650" height="990"/></clipPath><clipPath id="clip25"><rect x="1985" y="2227" width="1650" height="990"/></clipPath><clipPath id="clip26"><rect x="1985" y="2227" width="1650" height="990"/></clipPath><clipPath id="clip27"><rect x="1985" y="2227" width="1650" height="990"/></clipPath><clipPath id="clip28"><rect x="1985" y="2227" width="1650" height="990"/></clipPath><clipPath id="clip29"><rect x="1985" y="2227" width="1650" height="990"/></clipPath><clipPath id="clip30"><rect x="1985" y="2227" width="1650" height="990"/></clipPath><clipPath id="clip31"><rect x="1985" y="2227" width="1650" height="990"/></clipPath><clipPath id="clip32"><rect x="1985" y="2227" width="1650" height="990"/></clipPath><clipPath id="clip33"><rect x="1985" y="2227" width="1650" height="990"/></clipPath><clipPath id="clip34"><rect x="1985" y="2227" width="1650" height="990"/></clipPath><clipPath id="clip35"><rect x="1985" y="2227" width="1650" height="990"/></clipPath><clipPath id="clip36"><rect x="1985" y="2227" width="1650" height="990"/></clipPath><clipPath id="clip37"><rect x="1985" y="2227" width="1650" height="990"/></clipPath><clipPath id="clip38"><rect x="1985" y="2227" width="1650" height="990"/></clipPath><clipPath id="clip39"><rect x="1985" y="2227" width="1650" height="990"/></clipPath><clipPath id="clip40"><rect x="1985" y="2227" width="1650" height="990"/></clipPath><clipPath id="clip41"><rect x="1985" y="2227" width="1650" height="990"/></clipPath><clipPath id="clip42"><rect x="1985" y="2227" width="1650" height="990"/></clipPath><clipPath id="clip43"><rect x="1985" y="2227" width="1650" height="990"/></clipPath><clipPath id="clip44"><rect x="1985" y="2227" width="1650" height="990"/></clipPath><clipPath id="clip45"><rect x="1985" y="2227" width="1650" height="990"/></clipPath><clipPath id="clip46"><rect x="1985" y="2227" width="1650" height="990"/></clipPath><clipPath id="clip47"><rect x="1985" y="2227" width="1650" height="990"/></clipPath><clipPath id="clip48"><rect x="1985" y="2227" width="1650" height="990"/></clipPath><clipPath id="clip49"><rect x="1985" y="2227" width="1650" height="990"/></clipPath><clipPath id="clip50"><rect x="1985" y="2227" width="1650" height="990"/></clipPath><clipPath id="clip51"><rect x="1985" y="2227" width="1650" height="990"/></clipPath></defs><g clip-path="url(#clip0)" transform="translate(-1985 -2227)"><rect x="1986" y="2228" width="1649" height="989" fill="#FFFFFF"/><g clip-path="url(#clip1)"><path d="M2533.47 2365.57C2647.21 2365.57 2754.65 2417.79 2824.93 2507.22L2533.47 2736.25Z" stroke="#FFFFFF" stroke-width="6.875" stroke-linejoin="round" stroke-miterlimit="10" fill="#4472C4" fill-rule="evenodd"/></g><g clip-path="url(#clip2)"><path d="M2824.93 2507.22C2883.18 2581.36 2911 2674.9 2902.71 2768.81L2533.47 2736.25Z" stroke="#FFFFFF" stroke-width="6.875" stroke-linejoin="round" stroke-miterlimit="10" fill="#ED7D31" fill-rule="evenodd"/></g><g clip-path="url(#clip3)"><path d="M2902.71 2768.81C2893.58 2872.38 2841.37 2967.36 2758.81 3030.56L2533.47 2736.25Z" stroke="#FFFFFF" stroke-width="6.875" stroke-linejoin="round" stroke-miterlimit="10" fill="#A5A5A5" fill-rule="evenodd"/></g><g clip-path="url(#clip4)"><path d="M2758.81 3030.56C2742.16 3043.31 2724.46 3054.63 2705.89 3064.38L2533.47 2736.25Z" stroke="#FFFFFF" stroke-width="6.875" stroke-linejoin="round" stroke-miterlimit="10" fill="#FFC000" fill-rule="evenodd"/></g><g clip-path="url(#clip5)"><path d="M2705.89 3064.39C2684.57 3075.59 2662.21 3084.69 2639.12 3091.55L2533.47 2736.25Z" stroke="#FFFFFF" stroke-width="6.875" stroke-linejoin="round" stroke-miterlimit="10" fill="#5B9BD5" fill-rule="evenodd"/></g><g clip-path="url(#clip6)"><path d="M2639.12 3091.55C2610.81 3099.97 2581.59 3104.97 2552.09 3106.46L2533.47 2736.25Z" stroke="#FFFFFF" stroke-width="6.875" stroke-linejoin="round" stroke-miterlimit="10" fill="#70AD47" fill-rule="evenodd"/></g><g clip-path="url(#clip7)"><path d="M2552.09 3106.46C2473.91 3110.39 2396.49 3089.47 2330.93 3046.7L2533.47 2736.25Z" stroke="#FFFFFF" stroke-width="6.875" stroke-linejoin="round" stroke-miterlimit="10" fill="#264478" fill-rule="evenodd"/></g><g clip-path="url(#clip8)"><path d="M2330.93 3046.7C2258.69 2999.57 2205.14 2928.72 2179.52 2846.36L2533.47 2736.25Z" stroke="#FFFFFF" stroke-width="6.875" stroke-linejoin="round" stroke-miterlimit="10" fill="#9E480E" fill-rule="evenodd"/></g><g clip-path="url(#clip9)"><path d="M2179.52 2846.36C2170.52 2817.41 2165.1 2787.47 2163.38 2757.2L2533.47 2736.25Z" stroke="#FFFFFF" stroke-width="6.875" stroke-linejoin="round" stroke-miterlimit="10" fill="#636363" fill-rule="evenodd"/></g><g clip-path="url(#clip10)"><path d="M2163.38 2757.2C2162.77 2746.35 2162.63 2735.47 2162.97 2724.61L2533.47 2736.25Z" stroke="#FFFFFF" stroke-width="6.875" stroke-linejoin="round" stroke-miterlimit="10" fill="#997300" fill-rule="evenodd"/></g><g clip-path="url(#clip11)"><path d="M2162.97 2724.61C2164.59 2673.21 2176.88 2622.71 2199.07 2576.32L2533.47 2736.25Z" stroke="#FFFFFF" stroke-width="6.875" stroke-linejoin="round" stroke-miterlimit="10" fill="#255E91" fill-rule="evenodd"/></g><g clip-path="url(#clip12)"><path d="M2199.07 2576.32C2219.56 2533.47 2248.1 2494.95 2283.14 2462.87L2533.47 2736.25Z" stroke="#FFFFFF" stroke-width="6.875" stroke-linejoin="round" stroke-miterlimit="10" fill="#43682B" fill-rule="evenodd"/></g><g clip-path="url(#clip13)"><path d="M2283.14 2462.87C2317.59 2431.32 2357.7 2406.57 2401.35 2389.92L2533.47 2736.25Z" stroke="#FFFFFF" stroke-width="6.875" stroke-linejoin="round" stroke-miterlimit="10" fill="#698ED0" fill-rule="evenodd"/></g><g clip-path="url(#clip14)"><path d="M2401.35 2389.92C2443.54 2373.82 2488.31 2365.57 2533.47 2365.57L2533.47 2736.25Z" stroke="#FFFFFF" stroke-width="6.875" stroke-linejoin="round" stroke-miterlimit="10" fill="#F1975A" fill-rule="evenodd"/></g><g clip-path="url(#clip15)"><path d="M2733.5 3048.5 2794.59 3081.5 2815.5 3081.5" stroke="#A6A6A6" stroke-width="3.4375" stroke-linejoin="round" stroke-miterlimit="10" fill="none"/></g><g clip-path="url(#clip16)"><text font-family="Calibri,Calibri_MSFontService,sans-serif" font-weight="400" font-size="46" transform="matrix(1 0 0 1 2624.87 2474)">14%</text></g><g clip-path="url(#clip17)"><text font-family="Calibri,Calibri_MSFontService,sans-serif" font-weight="400" font-size="46" transform="matrix(1 0 0 1 2734.88 2691)">12.00%</text></g><g clip-path="url(#clip18)"><text font-family="Calibri,Calibri_MSFontService,sans-serif" font-weight="400" font-size="46" transform="matrix(1 0 0 1 2717.69 2870)">13.20%</text></g><g clip-path="url(#clip19)"><text font-family="Calibri,Calibri_MSFontService,sans-serif" font-weight="400" font-size="46" transform="matrix(1 0 0 1 2820.81 3083)">2.70%</text></g><g clip-path="url(#clip20)"><text font-family="Calibri,Calibri_MSFontService,sans-serif" font-weight="400" font-size="46" transform="matrix(1 0 0 1 2673 3141)">3.10%</text></g><g clip-path="url(#clip21)"><text font-family="Calibri,Calibri_MSFontService,sans-serif" font-weight="400" font-size="46" transform="matrix(1 0 0 1 2542.37 3172)">3.80%</text></g><g clip-path="url(#clip22)"><text font-family="Calibri,Calibri_MSFontService,sans-serif" font-weight="400" font-size="46" transform="matrix(1 0 0 1 2415.19 3059)">10%</text></g><g clip-path="url(#clip23)"><text font-family="Calibri,Calibri_MSFontService,sans-serif" font-weight="400" font-size="46" transform="matrix(1 0 0 1 2246.75 2935)">11%</text></g><g clip-path="url(#clip24)"><text font-family="Calibri,Calibri_MSFontService,sans-serif" font-weight="400" font-size="46" transform="matrix(1 0 0 1 2040.5 2849)">3.90%</text></g><g clip-path="url(#clip25)"><text font-family="Calibri,Calibri_MSFontService,sans-serif" font-weight="400" font-size="46" transform="matrix(1 0 0 1 2026.75 2766)">1.40%</text></g><g clip-path="url(#clip26)"><text font-family="Calibri,Calibri_MSFontService,sans-serif" font-weight="400" font-size="46" transform="matrix(1 0 0 1 2188.31 2694)">6.60%</text></g><g clip-path="url(#clip27)"><text font-family="Calibri,Calibri_MSFontService,sans-serif" font-weight="400" font-size="46" transform="matrix(1 0 0 1 2112.69 2498)">6.10%</text></g><g clip-path="url(#clip28)"><text font-family="Calibri,Calibri_MSFontService,sans-serif" font-weight="400" font-size="46" transform="matrix(1 0 0 1 2339.56 2485)">6%</text></g><g clip-path="url(#clip29)"><text font-family="Calibri,Calibri_MSFontService,sans-serif" font-weight="400" font-size="46" transform="matrix(1 0 0 1 2404.87 2351)">5.80%</text></g><g clip-path="url(#clip30)"><rect x="3103.5" y="2309.5" width="22" height="22.9998" stroke="#FFFFFF" stroke-width="6.875" stroke-linejoin="round" stroke-miterlimit="10" fill="#4472C4"/></g><g clip-path="url(#clip31)"><text fill="#595959" font-family="DengXian,DengXian_MSFontService,sans-serif" font-weight="400" font-size="41" transform="matrix(1 0 0 1 3135.34 2331)">球体</text></g><g clip-path="url(#clip32)"><rect x="3103.5" y="2387.5" width="22" height="22" stroke="#FFFFFF" stroke-width="6.875" stroke-linejoin="round" stroke-miterlimit="10" fill="#ED7D31"/></g><g clip-path="url(#clip33)"><text fill="#595959" font-family="DengXian,DengXian_MSFontService,sans-serif" font-weight="400" font-size="41" transform="matrix(1 0 0 1 3135.34 2408)">立方体、圆锥体、圆柱体</text></g><g clip-path="url(#clip34)"><rect x="3103.5" y="2464.5" width="22" height="23" stroke="#FFFFFF" stroke-width="6.875" stroke-linejoin="round" stroke-miterlimit="10" fill="#A5A5A5"/></g><g clip-path="url(#clip35)"><text fill="#595959" font-family="DengXian,DengXian_MSFontService,sans-serif" font-weight="400" font-size="41" transform="matrix(1 0 0 1 3135.34 2486)">圆锥体、立方体</text></g><g clip-path="url(#clip36)"><rect x="3103.5" y="2541.5" width="22" height="23" stroke="#FFFFFF" stroke-width="6.875" stroke-linejoin="round" stroke-miterlimit="10" fill="#FFC000"/></g><g clip-path="url(#clip37)"><text fill="#595959" font-family="DengXian,DengXian_MSFontService,sans-serif" font-weight="400" font-size="41" transform="matrix(1 0 0 1 3135.34 2563)">圆锥体、圆柱体</text></g><g clip-path="url(#clip38)"><rect x="3103.5" y="2619.5" width="22" height="22" stroke="#FFFFFF" stroke-width="6.875" stroke-linejoin="round" stroke-miterlimit="10" fill="#5B9BD5"/></g><g clip-path="url(#clip39)"><text fill="#595959" font-family="DengXian,DengXian_MSFontService,sans-serif" font-weight="400" font-size="41" transform="matrix(1 0 0 1 3135.34 2640)">圆锥体、立方体、球体</text></g><g clip-path="url(#clip40)"><rect x="3103.5" y="2696.5" width="22" height="23" stroke="#FFFFFF" stroke-width="6.875" stroke-linejoin="round" stroke-miterlimit="10" fill="#70AD47"/></g><g clip-path="url(#clip41)"><text fill="#595959" font-family="DengXian,DengXian_MSFontService,sans-serif" font-weight="400" font-size="41" transform="matrix(1 0 0 1 3135.34 2718)">立方体、圆柱体、球体</text></g><g clip-path="url(#clip42)"><rect x="3103.5" y="2773.5" width="22" height="23" stroke="#FFFFFF" stroke-width="6.875" stroke-linejoin="round" stroke-miterlimit="10" fill="#264478"/></g><g clip-path="url(#clip43)"><text fill="#595959" font-family="DengXian,DengXian_MSFontService,sans-serif" font-weight="400" font-size="41" transform="matrix(1 0 0 1 3135.34 2795)">圆柱体</text></g><g clip-path="url(#clip44)"><rect x="3103.5" y="2851.5" width="22" height="22" stroke="#FFFFFF" stroke-width="6.875" stroke-linejoin="round" stroke-miterlimit="10" fill="#9E480E"/></g><g clip-path="url(#clip45)"><text fill="#595959" font-family="DengXian,DengXian_MSFontService,sans-serif" font-weight="400" font-size="41" transform="matrix(1 0 0 1 3135.34 2872)">圆锥体、球体</text></g><g clip-path="url(#clip46)"><rect x="3103.5" y="2928.5" width="22" height="23" stroke="#FFFFFF" stroke-width="6.875" stroke-linejoin="round" stroke-miterlimit="10" fill="#636363"/></g><g clip-path="url(#clip47)"><text fill="#595959" font-family="DengXian,DengXian_MSFontService,sans-serif" font-weight="400" font-size="41" transform="matrix(1 0 0 1 3135.34 2950)">立方体</text></g><g clip-path="url(#clip48)"><rect x="3103.5" y="3005.5" width="22" height="23" stroke="#FFFFFF" stroke-width="6.875" stroke-linejoin="round" stroke-miterlimit="10" fill="#997300"/></g><g clip-path="url(#clip49)"><text fill="#595959" font-family="DengXian,DengXian_MSFontService,sans-serif" font-weight="400" font-size="41" transform="matrix(1 0 0 1 3135.34 3027)">圆柱体、球体</text></g><g clip-path="url(#clip50)"><rect x="3103.5" y="3083.5" width="22" height="22" stroke="#FFFFFF" stroke-width="6.875" stroke-linejoin="round" stroke-miterlimit="10" fill="#255E91"/></g><g clip-path="url(#clip51)"><text fill="#595959" font-family="DengXian,DengXian_MSFontService,sans-serif" font-weight="400" font-size="41" transform="matrix(1 0 0 1 3135.34 3104)">圆锥体、圆柱体、球体</text></g><rect x="1986.5" y="2228.5" width="1649" height="989" stroke="#D9D9D9" stroke-width="3.4375" stroke-linejoin="round" stroke-miterlimit="10" fill="none"/></g></svg>