<svg width="1653" height="993" xmlns="http://www.w3.org/2000/svg" xmlns:xlink="http://www.w3.org/1999/xlink" overflow="hidden"><defs><clipPath id="clip0"><rect x="1850" y="3302" width="1653" height="993"/></clipPath><clipPath id="clip1"><rect x="1850" y="3302" width="1650" height="990"/></clipPath><clipPath id="clip2"><rect x="1850" y="3302" width="1650" height="990"/></clipPath><clipPath id="clip3"><rect x="1850" y="3302" width="1650" height="990"/></clipPath><clipPath id="clip4"><rect x="1850" y="3302" width="1650" height="990"/></clipPath><clipPath id="clip5"><rect x="1850" y="3302" width="1650" height="990"/></clipPath><clipPath id="clip6"><rect x="1850" y="3302" width="1650" height="990"/></clipPath><clipPath id="clip7"><rect x="1850" y="3302" width="1650" height="990"/></clipPath><clipPath id="clip8"><rect x="1850" y="3302" width="1650" height="990"/></clipPath><clipPath id="clip9"><rect x="1850" y="3302" width="1650" height="990"/></clipPath><clipPath id="clip10"><rect x="1850" y="3302" width="1650" height="990"/></clipPath><clipPath id="clip11"><rect x="1850" y="3302" width="1650" height="990"/></clipPath><clipPath id="clip12"><rect x="1850" y="3302" width="1650" height="990"/></clipPath><clipPath id="clip13"><rect x="1850" y="3302" width="1650" height="990"/></clipPath><clipPath id="clip14"><rect x="1850" y="3302" width="1650" height="990"/></clipPath><clipPath id="clip15"><rect x="1850" y="3302" width="1650" height="990"/></clipPath><clipPath id="clip16"><rect x="1850" y="3302" width="1650" height="990"/></clipPath><clipPath id="clip17"><rect x="1850" y="3302" width="1650" height="990"/></clipPath><clipPath id="clip18"><rect x="1850" y="3302" width="1650" height="990"/></clipPath><clipPath id="clip19"><rect x="1850" y="3302" width="1650" height="990"/></clipPath><clipPath id="clip20"><rect x="1850" y="3302" width="1650" height="990"/></clipPath></defs><g clip-path="url(#clip0)" transform="translate(-1850 -3302)"><rect x="1851" y="3303" width="1650" height="990" fill="#FFFFFF"/><g clip-path="url(#clip1)"><path d="M2563.72 3440.82C2628.52 3440.82 2692.19 3457.81 2748.38 3490.1L2563.72 3811.5Z" stroke="#FFFFFF" stroke-width="6.875" stroke-linejoin="round" stroke-miterlimit="10" fill="#4472C4" fill-rule="evenodd"/></g><g clip-path="url(#clip2)"><path d="M2748.38 3490.1C2925.89 3592.08 2987.11 3818.66 2885.12 3996.17 2793.85 4155.03 2600.2 4223.37 2429.43 4157L2563.72 3811.5Z" stroke="#FFFFFF" stroke-width="6.875" stroke-linejoin="round" stroke-miterlimit="10" fill="#ED7D31" fill-rule="evenodd"/></g><g clip-path="url(#clip3)"><path d="M2429.43 4157C2321.13 4114.9 2238.83 4024.46 2207.12 3912.68L2563.72 3811.5Z" stroke="#FFFFFF" stroke-width="6.875" stroke-linejoin="round" stroke-miterlimit="10" fill="#A5A5A5" fill-rule="evenodd"/></g><g clip-path="url(#clip4)"><path d="M2207.12 3912.68C2205.42 3906.7 2203.88 3900.69 2202.48 3894.63L2563.72 3811.5Z" stroke="#FFFFFF" stroke-width="6.875" stroke-linejoin="round" stroke-miterlimit="10" fill="#FFC000" fill-rule="evenodd"/></g><g clip-path="url(#clip5)"><path d="M2202.48 3894.63C2156.57 3695.13 2281.08 3496.18 2480.59 3450.27 2507.85 3443.99 2535.74 3440.82 2563.72 3440.82L2563.72 3811.5Z" stroke="#FFFFFF" stroke-width="6.875" stroke-linejoin="round" stroke-miterlimit="10" fill="#5B9BD5" fill-rule="evenodd"/></g><g clip-path="url(#clip6)"><text font-family="Calibri,Calibri_MSFontService,sans-serif" font-weight="400" font-size="50" transform="matrix(1 0 0 1 2572.62 3536)">8.30%</text></g><g clip-path="url(#clip7)"><text font-family="Calibri,Calibri_MSFontService,sans-serif" font-weight="400" font-size="50" transform="matrix(1 0 0 1 2734.19 3942)">47.60%</text></g><g clip-path="url(#clip8)"><text font-family="Calibri,Calibri_MSFontService,sans-serif" font-weight="400" font-size="50" transform="matrix(1 0 0 1 2273.56 4000)">14.70%</text></g><g clip-path="url(#clip9)"><text font-family="Calibri,Calibri_MSFontService,sans-serif" font-weight="400" font-size="50" transform="matrix(1 0 0 1 2067.31 3925)">0.80%</text></g><g clip-path="url(#clip10)"><text font-family="Calibri,Calibri_MSFontService,sans-serif" font-weight="400" font-size="50" transform="matrix(1 0 0 1 2263.25 3681)">28.60%</text></g><g clip-path="url(#clip11)"><rect x="3298.5" y="3385.5" width="22" height="22" stroke="#FFFFFF" stroke-width="6.875" stroke-linejoin="round" stroke-miterlimit="10" fill="#4472C4"/></g><g clip-path="url(#clip12)"><text fill="#595959" font-family="DengXian,DengXian_MSFontService,sans-serif" font-weight="400" font-size="41" transform="matrix(1 0 0 1 3330.59 3406)">中、小</text></g><g clip-path="url(#clip13)"><rect x="3298.5" y="3462.5" width="22" height="23" stroke="#FFFFFF" stroke-width="6.875" stroke-linejoin="round" stroke-miterlimit="10" fill="#ED7D31"/></g><g clip-path="url(#clip14)"><text fill="#595959" font-family="DengXian,DengXian_MSFontService,sans-serif" font-weight="400" font-size="41" transform="matrix(1 0 0 1 3330.59 3484)">大、小</text></g><g clip-path="url(#clip15)"><rect x="3298.5" y="3539.5" width="22" height="23" stroke="#FFFFFF" stroke-width="6.875" stroke-linejoin="round" stroke-miterlimit="10" fill="#A5A5A5"/></g><g clip-path="url(#clip16)"><text fill="#595959" font-family="DengXian,DengXian_MSFontService,sans-serif" font-weight="400" font-size="41" transform="matrix(1 0 0 1 3330.59 3561)">大、中</text></g><g clip-path="url(#clip17)"><rect x="3298.5" y="3617.5" width="22" height="22" stroke="#FFFFFF" stroke-width="6.875" stroke-linejoin="round" stroke-miterlimit="10" fill="#FFC000"/></g><g clip-path="url(#clip18)"><text fill="#595959" font-family="DengXian,DengXian_MSFontService,sans-serif" font-weight="400" font-size="41" transform="matrix(1 0 0 1 3330.59 3638)">中</text></g><g clip-path="url(#clip19)"><rect x="3298.5" y="3694.5" width="22" height="23" stroke="#FFFFFF" stroke-width="6.875" stroke-linejoin="round" stroke-miterlimit="10" fill="#5B9BD5"/></g><g clip-path="url(#clip20)"><text fill="#595959" font-family="DengXian,DengXian_MSFontService,sans-serif" font-weight="400" font-size="41" transform="matrix(1 0 0 1 3330.59 3716)">小</text></g><rect x="1851.5" y="3303.5" width="1650" height="990" stroke="#D9D9D9" stroke-width="3.4375" stroke-linejoin="round" stroke-miterlimit="10" fill="none"/></g></svg>