<?xml version="1.0" encoding="utf-8" standalone="no"?>
<!DOCTYPE svg PUBLIC "-//W3C//DTD SVG 1.1//EN"
  "http://www.w3.org/Graphics/SVG/1.1/DTD/svg11.dtd">
<svg xmlns:xlink="http://www.w3.org/1999/xlink" width="1105.92pt" height="546.48pt" viewBox="0 0 1105.92 546.48" xmlns="http://www.w3.org/2000/svg" version="1.1">
 <metadata>
  <rdf:RDF xmlns:dc="http://purl.org/dc/elements/1.1/" xmlns:cc="http://creativecommons.org/ns#" xmlns:rdf="http://www.w3.org/1999/02/22-rdf-syntax-ns#">
   <cc:Work>
    <dc:type rdf:resource="http://purl.org/dc/dcmitype/StillImage"/>
    <dc:date>2025-03-28T10:32:03.719173</dc:date>
    <dc:format>image/svg+xml</dc:format>
    <dc:creator>
     <cc:Agent>
      <dc:title>Matplotlib v3.7.0, https://matplotlib.org/</dc:title>
     </cc:Agent>
    </dc:creator>
   </cc:Work>
  </rdf:RDF>
 </metadata>
 <defs>
  <style type="text/css">*{stroke-linejoin: round; stroke-linecap: butt}</style>
 </defs>
 <g id="figure_1">
  <g id="patch_1">
   <path d="M 0 546.48 
L 1105.92 546.48 
L 1105.92 0 
L 0 0 
z
" style="fill: #ffffff"/>
  </g>
  <g id="axes_1">
   <g id="patch_2">
    <path d="M 138.24 486.3672 
L 995.328 486.3672 
L 995.328 65.5776 
L 138.24 65.5776 
z
" style="fill: #ffffff"/>
   </g>
   <g id="PathCollection_1">
    <defs>
     <path id="m1ceac36af5" d="M 0 6.123724 
C 1.624031 6.123724 3.181764 5.47849 4.330127 4.330127 
C 5.47849 3.181764 6.123724 1.624031 6.123724 0 
C 6.123724 -1.624031 5.47849 -3.181764 4.330127 -4.330127 
C 3.181764 -5.47849 1.624031 -6.123724 0 -6.123724 
C -1.624031 -6.123724 -3.181764 -5.47849 -4.330127 -4.330127 
C -5.47849 -3.181764 -6.123724 -1.624031 -6.123724 0 
C -6.123724 1.624031 -5.47849 3.181764 -4.330127 4.330127 
C -3.181764 5.47849 -1.624031 6.123724 0 6.123724 
z
" style="stroke: #000000; stroke-opacity: 0.8"/>
    </defs>
    <g clip-path="url(#pca53982378)">
     <use xlink:href="#m1ceac36af5" x="923.904" y="170.775" style="fill: #ffc0cb; fill-opacity: 0.8; stroke: #000000; stroke-opacity: 0.8"/>
    </g>
   </g>
   <g id="PathCollection_2">
    <defs>
     <path id="ma007c0ee91" d="M 0 -6.123724 
L -6.123724 6.123724 
L 6.123724 6.123724 
z
" style="stroke: #000000; stroke-opacity: 0.8"/>
    </defs>
    <g clip-path="url(#pca53982378)">
     <use xlink:href="#ma007c0ee91" x="709.632" y="205.8408" style="fill: #0000ff; fill-opacity: 0.8; stroke: #000000; stroke-opacity: 0.8"/>
    </g>
   </g>
   <g id="PathCollection_3">
    <defs>
     <path id="m939f1da8f5" d="M -0 6.123724 
L 6.123724 -6.123724 
L -6.123724 -6.123724 
z
" style="stroke: #000000; stroke-opacity: 0.8"/>
    </defs>
    <g clip-path="url(#pca53982378)">
     <use xlink:href="#m939f1da8f5" x="709.632" y="135.7092" style="fill: #0000ff; fill-opacity: 0.8; stroke: #000000; stroke-opacity: 0.8"/>
    </g>
   </g>
   <g id="PathCollection_4">
    <defs>
     <path id="mb99a1d8d76" d="M 0 -6.123724 
L -1.374862 -1.892335 
L -5.824008 -1.892335 
L -2.224573 0.722808 
L -3.599435 4.954197 
L -0 2.339054 
L 3.599435 4.954197 
L 2.224573 0.722808 
L 5.824008 -1.892335 
L 1.374862 -1.892335 
z
" style="stroke: #000000; stroke-opacity: 0.8"/>
    </defs>
    <g clip-path="url(#pca53982378)">
     <use xlink:href="#mb99a1d8d76" x="423.936" y="381.1698" style="fill: #800080; fill-opacity: 0.8; stroke: #000000; stroke-opacity: 0.8"/>
    </g>
   </g>
   <g id="PathCollection_5">
    <defs>
     <path id="m44b6c6cb2c" d="M 0 8.660254 
L 5.196152 0 
L 0 -8.660254 
L -5.196152 0 
z
" style="stroke: #000000; stroke-opacity: 0.8"/>
    </defs>
    <g clip-path="url(#pca53982378)">
     <use xlink:href="#m44b6c6cb2c" x="923.904" y="135.7092" style="fill: #ff00ff; fill-opacity: 0.8; stroke: #000000; stroke-opacity: 0.8"/>
    </g>
   </g>
   <g id="matplotlib.axis_1">
    <g id="xtick_1">
     <g id="line2d_1">
      <path d="M 209.664 486.3672 
L 209.664 65.5776 
" clip-path="url(#pca53982378)" style="fill: none; stroke-dasharray: 2.96,1.28; stroke-dashoffset: 0; stroke: #b0b0b0; stroke-opacity: 0.6; stroke-width: 0.8"/>
     </g>
     <g id="line2d_2">
      <defs>
       <path id="m7b3d97f331" d="M 0 0 
L 0 3.5 
" style="stroke: #000000; stroke-width: 0.8"/>
      </defs>
      <g>
       <use xlink:href="#m7b3d97f331" x="209.664" y="486.3672" style="stroke: #000000; stroke-width: 0.8"/>
      </g>
     </g>
     <g id="text_1">
      <!-- 0.0 -->
      <g transform="translate(202.596031 501.36095) scale(0.1 -0.1)">
       <defs>
        <path id="MicrosoftYaHei-30" d="M 284 2325 
Q 284 3606 709 4264 
Q 1134 4922 1941 4922 
Q 3478 4922 3478 2441 
Q 3478 1216 3045 567 
Q 2613 -81 1831 -81 
Q 1094 -81 689 534 
Q 284 1150 284 2325 
z
M 909 2353 
Q 909 425 1888 425 
Q 2850 425 2850 2384 
Q 2850 4413 1906 4413 
Q 909 4413 909 2353 
z
" transform="scale(0.015625)"/>
        <path id="MicrosoftYaHei-2e" d="M 372 322 
Q 372 491 487 606 
Q 603 722 775 722 
Q 950 722 1065 605 
Q 1181 488 1181 322 
Q 1181 159 1065 42 
Q 950 -75 772 -75 
Q 600 -75 486 42 
Q 372 159 372 322 
z
" transform="scale(0.015625)"/>
       </defs>
       <use xlink:href="#MicrosoftYaHei-30"/>
       <use xlink:href="#MicrosoftYaHei-2e" x="58.642578"/>
       <use xlink:href="#MicrosoftYaHei-30" x="82.714844"/>
      </g>
     </g>
    </g>
    <g id="xtick_2">
     <g id="line2d_3">
      <path d="M 352.512 486.3672 
L 352.512 65.5776 
" clip-path="url(#pca53982378)" style="fill: none; stroke-dasharray: 2.96,1.28; stroke-dashoffset: 0; stroke: #b0b0b0; stroke-opacity: 0.6; stroke-width: 0.8"/>
     </g>
     <g id="line2d_4">
      <g>
       <use xlink:href="#m7b3d97f331" x="352.512" y="486.3672" style="stroke: #000000; stroke-width: 0.8"/>
      </g>
     </g>
     <g id="text_2">
      <!-- 0.2 -->
      <g transform="translate(345.444031 501.36095) scale(0.1 -0.1)">
       <defs>
        <path id="MicrosoftYaHei-32" d="M 2666 3572 
Q 2666 3963 2419 4186 
Q 2172 4409 1747 4409 
Q 1447 4409 1140 4256 
Q 834 4103 569 3819 
L 569 4413 
Q 806 4659 1107 4790 
Q 1409 4922 1816 4922 
Q 2472 4922 2872 4570 
Q 3272 4219 3272 3619 
Q 3272 3084 3026 2693 
Q 2781 2303 2188 1894 
Q 1581 1475 1376 1294 
Q 1172 1113 1090 947 
Q 1009 781 1009 544 
L 3416 544 
L 3416 0 
L 372 0 
L 372 241 
Q 372 659 486 951 
Q 600 1244 862 1520 
Q 1125 1797 1681 2184 
Q 2250 2584 2458 2886 
Q 2666 3188 2666 3572 
z
" transform="scale(0.015625)"/>
       </defs>
       <use xlink:href="#MicrosoftYaHei-30"/>
       <use xlink:href="#MicrosoftYaHei-2e" x="58.642578"/>
       <use xlink:href="#MicrosoftYaHei-32" x="82.714844"/>
      </g>
     </g>
    </g>
    <g id="xtick_3">
     <g id="line2d_5">
      <path d="M 495.36 486.3672 
L 495.36 65.5776 
" clip-path="url(#pca53982378)" style="fill: none; stroke-dasharray: 2.96,1.28; stroke-dashoffset: 0; stroke: #b0b0b0; stroke-opacity: 0.6; stroke-width: 0.8"/>
     </g>
     <g id="line2d_6">
      <g>
       <use xlink:href="#m7b3d97f331" x="495.36" y="486.3672" style="stroke: #000000; stroke-width: 0.8"/>
      </g>
     </g>
     <g id="text_3">
      <!-- 0.4 -->
      <g transform="translate(488.292031 501.36095) scale(0.1 -0.1)">
       <defs>
        <path id="MicrosoftYaHei-34" d="M 2906 4841 
L 2906 1644 
L 3631 1644 
L 3631 1138 
L 2906 1138 
L 2906 0 
L 2313 0 
L 2313 1138 
L 53 1138 
L 53 1616 
Q 656 2294 1265 3178 
Q 1875 4063 2272 4841 
L 2906 4841 
z
M 741 1644 
L 2313 1644 
L 2313 3950 
Q 1988 3366 1616 2817 
Q 1244 2269 741 1644 
z
" transform="scale(0.015625)"/>
       </defs>
       <use xlink:href="#MicrosoftYaHei-30"/>
       <use xlink:href="#MicrosoftYaHei-2e" x="58.642578"/>
       <use xlink:href="#MicrosoftYaHei-34" x="82.714844"/>
      </g>
     </g>
    </g>
    <g id="xtick_4">
     <g id="line2d_7">
      <path d="M 638.208 486.3672 
L 638.208 65.5776 
" clip-path="url(#pca53982378)" style="fill: none; stroke-dasharray: 2.96,1.28; stroke-dashoffset: 0; stroke: #b0b0b0; stroke-opacity: 0.6; stroke-width: 0.8"/>
     </g>
     <g id="line2d_8">
      <g>
       <use xlink:href="#m7b3d97f331" x="638.208" y="486.3672" style="stroke: #000000; stroke-width: 0.8"/>
      </g>
     </g>
     <g id="text_4">
      <!-- 0.6 -->
      <g transform="translate(631.140031 501.36095) scale(0.1 -0.1)">
       <defs>
        <path id="MicrosoftYaHei-36" d="M 3181 4219 
Q 2803 4413 2391 4413 
Q 1763 4413 1381 3866 
Q 1000 3319 994 2372 
L 1009 2372 
Q 1353 3038 2106 3038 
Q 2734 3038 3109 2628 
Q 3484 2219 3484 1541 
Q 3484 831 3051 375 
Q 2619 -81 1947 -81 
Q 1209 -81 789 495 
Q 369 1072 369 2131 
Q 369 3413 920 4167 
Q 1472 4922 2372 4922 
Q 2888 4922 3181 4781 
L 3181 4219 
z
M 1031 1584 
Q 1031 1106 1286 765 
Q 1541 425 1963 425 
Q 2363 425 2613 719 
Q 2863 1013 2863 1475 
Q 2863 1975 2627 2253 
Q 2391 2531 1956 2531 
Q 1544 2531 1287 2250 
Q 1031 1969 1031 1584 
z
" transform="scale(0.015625)"/>
       </defs>
       <use xlink:href="#MicrosoftYaHei-30"/>
       <use xlink:href="#MicrosoftYaHei-2e" x="58.642578"/>
       <use xlink:href="#MicrosoftYaHei-36" x="82.714844"/>
      </g>
     </g>
    </g>
    <g id="xtick_5">
     <g id="line2d_9">
      <path d="M 781.056 486.3672 
L 781.056 65.5776 
" clip-path="url(#pca53982378)" style="fill: none; stroke-dasharray: 2.96,1.28; stroke-dashoffset: 0; stroke: #b0b0b0; stroke-opacity: 0.6; stroke-width: 0.8"/>
     </g>
     <g id="line2d_10">
      <g>
       <use xlink:href="#m7b3d97f331" x="781.056" y="486.3672" style="stroke: #000000; stroke-width: 0.8"/>
      </g>
     </g>
     <g id="text_5">
      <!-- 0.8 -->
      <g transform="translate(773.988031 501.36095) scale(0.1 -0.1)">
       <defs>
        <path id="MicrosoftYaHei-38" d="M 306 1350 
Q 306 1769 556 2122 
Q 806 2475 1200 2625 
Q 884 2803 700 3081 
Q 516 3359 516 3684 
Q 516 4028 692 4312 
Q 869 4597 1183 4759 
Q 1497 4922 1875 4922 
Q 2256 4922 2572 4761 
Q 2888 4600 3063 4315 
Q 3238 4031 3238 3684 
Q 3238 3366 3058 3086 
Q 2878 2806 2559 2625 
Q 2953 2472 3200 2119 
Q 3447 1766 3447 1350 
Q 3447 938 3250 611 
Q 3053 284 2690 103 
Q 2328 -78 1875 -78 
Q 1425 -78 1065 103 
Q 706 284 506 612 
Q 306 941 306 1350 
z
M 906 1378 
Q 906 947 1172 687 
Q 1438 428 1878 428 
Q 2309 428 2582 692 
Q 2856 956 2856 1378 
Q 2856 1778 2579 2051 
Q 2303 2325 1878 2325 
Q 1456 2325 1181 2058 
Q 906 1791 906 1378 
z
M 1081 3634 
Q 1081 3309 1312 3076 
Q 1544 2844 1878 2844 
Q 2206 2844 2445 3078 
Q 2684 3313 2684 3634 
Q 2684 3963 2454 4191 
Q 2225 4419 1878 4419 
Q 1534 4419 1307 4195 
Q 1081 3972 1081 3634 
z
" transform="scale(0.015625)"/>
       </defs>
       <use xlink:href="#MicrosoftYaHei-30"/>
       <use xlink:href="#MicrosoftYaHei-2e" x="58.642578"/>
       <use xlink:href="#MicrosoftYaHei-38" x="82.714844"/>
      </g>
     </g>
    </g>
    <g id="xtick_6">
     <g id="line2d_11">
      <path d="M 923.904 486.3672 
L 923.904 65.5776 
" clip-path="url(#pca53982378)" style="fill: none; stroke-dasharray: 2.96,1.28; stroke-dashoffset: 0; stroke: #b0b0b0; stroke-opacity: 0.6; stroke-width: 0.8"/>
     </g>
     <g id="line2d_12">
      <g>
       <use xlink:href="#m7b3d97f331" x="923.904" y="486.3672" style="stroke: #000000; stroke-width: 0.8"/>
      </g>
     </g>
     <g id="text_6">
      <!-- 1.0 -->
      <g transform="translate(916.836031 501.36095) scale(0.1 -0.1)">
       <defs>
        <path id="MicrosoftYaHei-31" d="M 1781 0 
L 1781 4141 
Q 1638 3997 1295 3819 
Q 953 3641 663 3569 
L 663 4169 
Q 1047 4275 1484 4508 
Q 1922 4741 2156 4947 
L 2388 4947 
L 2388 0 
L 1781 0 
z
" transform="scale(0.015625)"/>
       </defs>
       <use xlink:href="#MicrosoftYaHei-31"/>
       <use xlink:href="#MicrosoftYaHei-2e" x="58.642578"/>
       <use xlink:href="#MicrosoftYaHei-30" x="82.714844"/>
      </g>
     </g>
    </g>
    <g id="text_7">
     <!-- 语法正确率 -->
     <g transform="translate(536.784 517.439388) scale(0.12 -0.12)">
      <defs>
       <path id="MicrosoftYaHei-8bed" d="M 1825 2547 
L 2881 2547 
L 3006 3428 
L 2113 3428 
L 2113 3859 
L 3066 3859 
L 3169 4584 
L 1975 4584 
L 1975 5022 
L 6025 5022 
L 6025 4584 
L 3641 4584 
L 3541 3859 
L 5506 3859 
L 5506 2547 
L 6288 2547 
L 6288 2109 
L 1825 2109 
L 1825 2547 
z
M 2375 1466 
L 5719 1466 
L 5719 -822 
L 5250 -822 
L 5250 -441 
L 2844 -441 
L 2844 -822 
L 2375 -822 
L 2375 1466 
z
M 2094 716 
Q 2113 391 2138 178 
Q 1519 -216 888 -722 
L 594 -303 
Q 806 -103 806 259 
L 806 2716 
L 100 2716 
L 100 3166 
L 1288 3166 
L 1288 147 
Q 1725 441 2094 716 
z
M 5250 1028 
L 2844 1028 
L 2844 -3 
L 5250 -3 
L 5250 1028 
z
M 5038 3428 
L 3481 3428 
L 3363 2547 
L 5038 2547 
L 5038 3428 
z
M 738 5222 
Q 1419 4522 1725 4184 
L 1288 3816 
Q 894 4334 356 4891 
L 738 5222 
z
" transform="scale(0.015625)"/>
       <path id="MicrosoftYaHei-6cd5" d="M 4888 1328 
Q 5488 509 6181 -553 
Q 5931 -697 5694 -841 
Q 5519 -550 5350 -278 
Q 3300 -447 2138 -559 
L 1906 -16 
Q 2300 159 2675 716 
Q 3088 1303 3441 1953 
L 1800 1953 
L 1800 2403 
L 3763 2403 
L 3763 3728 
L 2106 3728 
L 2106 4178 
L 3763 4178 
L 3763 5322 
L 4263 5322 
L 4263 4178 
L 5994 4178 
L 5994 3728 
L 4263 3728 
L 4263 2403 
L 6288 2403 
L 6288 1953 
L 4069 1953 
Q 3372 806 2706 -28 
Q 3897 28 5088 141 
Q 4766 644 4475 1066 
L 4888 1328 
z
M 1013 1828 
Q 1244 1728 1506 1622 
Q 1063 291 731 -784 
L 194 -603 
Q 606 497 1013 1828 
z
M 400 3622 
Q 869 3291 1500 2772 
Q 1269 2509 1138 2366 
Q 431 2997 88 3259 
L 400 3622 
z
M 644 5241 
Q 1144 4841 1719 4328 
Q 1506 4109 1350 3941 
Q 775 4509 325 4897 
L 644 5241 
z
" transform="scale(0.015625)"/>
       <path id="MicrosoftYaHei-6b63" d="M 88 66 
L 1106 66 
L 1106 3416 
L 1644 3416 
L 1644 66 
L 3231 66 
L 3231 4309 
L 375 4309 
L 375 4797 
L 6063 4797 
L 6063 4309 
L 3769 4309 
L 3769 2672 
L 5850 2672 
L 5850 2191 
L 3769 2191 
L 3769 66 
L 6313 66 
L 6313 -422 
L 88 -422 
L 88 66 
z
" transform="scale(0.015625)"/>
       <path id="MicrosoftYaHei-786e" d="M 2075 3453 
Q 2956 4334 3456 5359 
L 3931 5272 
Q 3781 4991 3619 4722 
L 5438 4722 
L 5438 4328 
L 4909 3666 
L 6063 3666 
L 6063 -53 
Q 6063 -728 5475 -728 
Q 5144 -728 4906 -716 
Q 4869 -497 4813 -259 
Q 5156 -291 5331 -291 
Q 5619 -291 5619 16 
L 5619 734 
L 4588 734 
L 4588 -659 
L 4144 -659 
L 4144 734 
L 3113 734 
Q 2944 -263 2444 -884 
Q 2288 -703 2081 -509 
Q 2756 291 2756 1841 
L 2756 3506 
Q 2597 3316 2431 3134 
Q 2281 3278 2075 3453 
z
M 31 1691 
Q 741 2834 1066 4291 
L 231 4291 
L 231 4716 
L 2469 4716 
L 2469 4291 
L 1509 4291 
Q 1356 3613 1128 2991 
L 2200 2991 
L 2200 128 
L 1150 128 
L 1150 -347 
L 738 -347 
L 738 2059 
Q 559 1691 350 1347 
Q 225 1497 31 1691 
z
M 1788 541 
L 1788 2578 
L 1150 2578 
L 1150 541 
L 1788 541 
z
M 4875 4322 
L 3366 4322 
Q 3138 3981 2884 3666 
L 4384 3666 
L 4875 4322 
z
M 4588 1134 
L 5619 1134 
L 5619 1991 
L 4588 1991 
L 4588 1134 
z
M 5619 3241 
L 4588 3241 
L 4588 2391 
L 5619 2391 
L 5619 3241 
z
M 3166 1134 
L 4144 1134 
L 4144 1991 
L 3200 1991 
Q 3200 1841 3166 1134 
z
M 3200 2391 
L 4144 2391 
L 4144 3241 
L 3200 3241 
L 3200 2391 
z
" transform="scale(0.015625)"/>
       <path id="MicrosoftYaHei-7387" d="M 2525 2009 
Q 2622 2016 3928 2081 
Q 3772 2300 3625 2491 
L 3963 2703 
Q 4413 2203 4794 1653 
L 4394 1403 
Q 4284 1569 4178 1725 
Q 2991 1659 2213 1597 
Q 2075 1584 1881 1541 
L 1725 1966 
Q 1913 2028 2006 2084 
Q 2534 2441 3050 2913 
Q 2597 2894 2275 2866 
Q 2144 2847 1988 2809 
L 1800 3191 
Q 1956 3247 2088 3366 
Q 2509 3722 2875 4228 
L 231 4228 
L 231 4666 
L 3031 4666 
Q 2878 4944 2744 5153 
L 3194 5372 
Q 3438 5000 3616 4666 
L 6175 4666 
L 6175 4228 
L 3053 4228 
L 3350 4072 
Q 2844 3553 2494 3247 
Q 2850 3256 3425 3269 
Q 3675 3519 3925 3797 
L 4356 3547 
Q 3363 2603 2525 2009 
z
M 144 991 
L 2994 991 
L 2994 1541 
L 3488 1541 
L 3488 991 
L 6275 991 
L 6275 553 
L 3488 553 
L 3488 -853 
L 2994 -853 
L 2994 553 
L 144 553 
L 144 991 
z
M 1719 2672 
L 1944 2303 
Q 1200 1866 425 1409 
L 163 1828 
Q 813 2134 1719 2672 
z
M 4856 2678 
Q 5750 2172 6250 1816 
L 5975 1409 
Q 5331 1909 4600 2341 
L 4856 2678 
z
M 5994 3591 
Q 5519 3178 4963 2809 
L 4644 3141 
Q 5244 3534 5638 3928 
L 5994 3591 
z
M 363 3634 
L 681 3941 
Q 1200 3528 1588 3159 
L 1238 2816 
Q 875 3197 363 3634 
z
" transform="scale(0.015625)"/>
      </defs>
      <use xlink:href="#MicrosoftYaHei-8bed"/>
      <use xlink:href="#MicrosoftYaHei-6cd5" x="100"/>
      <use xlink:href="#MicrosoftYaHei-6b63" x="200"/>
      <use xlink:href="#MicrosoftYaHei-786e" x="300"/>
      <use xlink:href="#MicrosoftYaHei-7387" x="400"/>
     </g>
    </g>
   </g>
   <g id="matplotlib.axis_2">
    <g id="ytick_1">
     <g id="line2d_13">
      <path d="M 138.24 451.3014 
L 995.328 451.3014 
" clip-path="url(#pca53982378)" style="fill: none; stroke-dasharray: 2.96,1.28; stroke-dashoffset: 0; stroke: #b0b0b0; stroke-opacity: 0.6; stroke-width: 0.8"/>
     </g>
     <g id="line2d_14">
      <defs>
       <path id="m61bf179b3f" d="M 0 0 
L -3.5 0 
" style="stroke: #000000; stroke-width: 0.8"/>
      </defs>
      <g>
       <use xlink:href="#m61bf179b3f" x="138.24" y="451.3014" style="stroke: #000000; stroke-width: 0.8"/>
      </g>
     </g>
     <g id="text_8">
      <!-- 0.0 -->
      <g transform="translate(117.104063 455.298275) scale(0.1 -0.1)">
       <use xlink:href="#MicrosoftYaHei-30"/>
       <use xlink:href="#MicrosoftYaHei-2e" x="58.642578"/>
       <use xlink:href="#MicrosoftYaHei-30" x="82.714844"/>
      </g>
     </g>
    </g>
    <g id="ytick_2">
     <g id="line2d_15">
      <path d="M 138.24 381.1698 
L 995.328 381.1698 
" clip-path="url(#pca53982378)" style="fill: none; stroke-dasharray: 2.96,1.28; stroke-dashoffset: 0; stroke: #b0b0b0; stroke-opacity: 0.6; stroke-width: 0.8"/>
     </g>
     <g id="line2d_16">
      <g>
       <use xlink:href="#m61bf179b3f" x="138.24" y="381.1698" style="stroke: #000000; stroke-width: 0.8"/>
      </g>
     </g>
     <g id="text_9">
      <!-- 0.2 -->
      <g transform="translate(117.104063 385.166675) scale(0.1 -0.1)">
       <use xlink:href="#MicrosoftYaHei-30"/>
       <use xlink:href="#MicrosoftYaHei-2e" x="58.642578"/>
       <use xlink:href="#MicrosoftYaHei-32" x="82.714844"/>
      </g>
     </g>
    </g>
    <g id="ytick_3">
     <g id="line2d_17">
      <path d="M 138.24 311.0382 
L 995.328 311.0382 
" clip-path="url(#pca53982378)" style="fill: none; stroke-dasharray: 2.96,1.28; stroke-dashoffset: 0; stroke: #b0b0b0; stroke-opacity: 0.6; stroke-width: 0.8"/>
     </g>
     <g id="line2d_18">
      <g>
       <use xlink:href="#m61bf179b3f" x="138.24" y="311.0382" style="stroke: #000000; stroke-width: 0.8"/>
      </g>
     </g>
     <g id="text_10">
      <!-- 0.4 -->
      <g transform="translate(117.104063 315.035075) scale(0.1 -0.1)">
       <use xlink:href="#MicrosoftYaHei-30"/>
       <use xlink:href="#MicrosoftYaHei-2e" x="58.642578"/>
       <use xlink:href="#MicrosoftYaHei-34" x="82.714844"/>
      </g>
     </g>
    </g>
    <g id="ytick_4">
     <g id="line2d_19">
      <path d="M 138.24 240.9066 
L 995.328 240.9066 
" clip-path="url(#pca53982378)" style="fill: none; stroke-dasharray: 2.96,1.28; stroke-dashoffset: 0; stroke: #b0b0b0; stroke-opacity: 0.6; stroke-width: 0.8"/>
     </g>
     <g id="line2d_20">
      <g>
       <use xlink:href="#m61bf179b3f" x="138.24" y="240.9066" style="stroke: #000000; stroke-width: 0.8"/>
      </g>
     </g>
     <g id="text_11">
      <!-- 0.6 -->
      <g transform="translate(117.104063 244.903475) scale(0.1 -0.1)">
       <use xlink:href="#MicrosoftYaHei-30"/>
       <use xlink:href="#MicrosoftYaHei-2e" x="58.642578"/>
       <use xlink:href="#MicrosoftYaHei-36" x="82.714844"/>
      </g>
     </g>
    </g>
    <g id="ytick_5">
     <g id="line2d_21">
      <path d="M 138.24 170.775 
L 995.328 170.775 
" clip-path="url(#pca53982378)" style="fill: none; stroke-dasharray: 2.96,1.28; stroke-dashoffset: 0; stroke: #b0b0b0; stroke-opacity: 0.6; stroke-width: 0.8"/>
     </g>
     <g id="line2d_22">
      <g>
       <use xlink:href="#m61bf179b3f" x="138.24" y="170.775" style="stroke: #000000; stroke-width: 0.8"/>
      </g>
     </g>
     <g id="text_12">
      <!-- 0.8 -->
      <g transform="translate(117.104063 174.771875) scale(0.1 -0.1)">
       <use xlink:href="#MicrosoftYaHei-30"/>
       <use xlink:href="#MicrosoftYaHei-2e" x="58.642578"/>
       <use xlink:href="#MicrosoftYaHei-38" x="82.714844"/>
      </g>
     </g>
    </g>
    <g id="ytick_6">
     <g id="line2d_23">
      <path d="M 138.24 100.6434 
L 995.328 100.6434 
" clip-path="url(#pca53982378)" style="fill: none; stroke-dasharray: 2.96,1.28; stroke-dashoffset: 0; stroke: #b0b0b0; stroke-opacity: 0.6; stroke-width: 0.8"/>
     </g>
     <g id="line2d_24">
      <g>
       <use xlink:href="#m61bf179b3f" x="138.24" y="100.6434" style="stroke: #000000; stroke-width: 0.8"/>
      </g>
     </g>
     <g id="text_13">
      <!-- 1.0 -->
      <g transform="translate(117.104063 104.640275) scale(0.1 -0.1)">
       <use xlink:href="#MicrosoftYaHei-31"/>
       <use xlink:href="#MicrosoftYaHei-2e" x="58.642578"/>
       <use xlink:href="#MicrosoftYaHei-30" x="82.714844"/>
      </g>
     </g>
    </g>
    <g id="text_14">
     <!-- 语义正确率 -->
     <g transform="translate(110.120938 305.9724) rotate(-90) scale(0.12 -0.12)">
      <defs>
       <path id="MicrosoftYaHei-4e49" d="M 4869 4891 
L 5406 4791 
Q 4991 2394 3603 966 
Q 4563 209 6325 -197 
Q 6056 -516 5888 -741 
Q 4113 -163 3203 594 
Q 2275 -166 444 -816 
Q 306 -584 100 -328 
Q 1938 216 2825 950 
Q 1553 2241 956 4703 
L 1444 4891 
Q 1981 2575 3213 1316 
Q 4588 2750 4869 4891 
z
M 2500 5128 
L 2956 5347 
Q 3431 4547 3750 3859 
L 3263 3597 
Q 2881 4441 2500 5128 
z
" transform="scale(0.015625)"/>
      </defs>
      <use xlink:href="#MicrosoftYaHei-8bed"/>
      <use xlink:href="#MicrosoftYaHei-4e49" x="100"/>
      <use xlink:href="#MicrosoftYaHei-6b63" x="200"/>
      <use xlink:href="#MicrosoftYaHei-786e" x="300"/>
      <use xlink:href="#MicrosoftYaHei-7387" x="400"/>
     </g>
    </g>
   </g>
   <g id="patch_3">
    <path d="M 138.24 486.3672 
L 138.24 65.5776 
" style="fill: none; stroke: #000000; stroke-width: 0.8; stroke-linejoin: miter; stroke-linecap: square"/>
   </g>
   <g id="patch_4">
    <path d="M 995.328 486.3672 
L 995.328 65.5776 
" style="fill: none; stroke: #000000; stroke-width: 0.8; stroke-linejoin: miter; stroke-linecap: square"/>
   </g>
   <g id="patch_5">
    <path d="M 138.24 486.3672 
L 995.328 486.3672 
" style="fill: none; stroke: #000000; stroke-width: 0.8; stroke-linejoin: miter; stroke-linecap: square"/>
   </g>
   <g id="patch_6">
    <path d="M 138.24 65.5776 
L 995.328 65.5776 
" style="fill: none; stroke: #000000; stroke-width: 0.8; stroke-linejoin: miter; stroke-linecap: square"/>
   </g>
   <g id="legend_1">
    <g id="patch_7">
     <path d="M 1002.328 166.455725 
L 1105.612375 166.455725 
Q 1107.612375 166.455725 1107.612375 164.455725 
L 1107.612375 72.5776 
Q 1107.612375 70.5776 1105.612375 70.5776 
L 1002.328 70.5776 
Q 1000.328 70.5776 1000.328 72.5776 
L 1000.328 164.455725 
Q 1000.328 166.455725 1002.328 166.455725 
z
" style="fill: #ffffff; opacity: 0.8; stroke: #cccccc; stroke-linejoin: miter"/>
    </g>
    <g id="text_15">
     <!-- 模型 -->
     <g transform="translate(1043.970188 82.57135) scale(0.1 -0.1)">
      <defs>
       <path id="MicrosoftYaHei-6a21" d="M 2050 984 
L 3859 984 
Q 3900 1213 3913 1547 
L 2950 1547 
L 2950 1372 
L 2500 1372 
L 2500 3634 
L 5844 3634 
L 5844 1372 
L 5394 1372 
L 5394 1547 
L 4344 1547 
Q 4325 1203 4288 984 
L 6250 984 
L 6250 584 
L 4525 584 
Q 5203 -175 6319 -341 
Q 6144 -572 6013 -809 
Q 4803 -456 4128 466 
Q 3681 -431 2075 -847 
Q 1969 -628 1831 -416 
Q 3303 -106 3713 584 
L 2050 584 
L 2050 984 
z
M 63 1409 
Q 603 2316 922 3509 
L 138 3509 
L 138 3922 
L 1006 3922 
L 1006 5309 
L 1444 5309 
L 1444 3922 
L 2256 3922 
L 2256 3509 
L 1444 3509 
L 1444 2684 
L 1688 2884 
Q 2044 2503 2350 2116 
L 2006 1828 
Q 1719 2244 1444 2563 
L 1444 -822 
L 1006 -822 
L 1006 2581 
Q 672 1438 275 859 
Q 188 1128 63 1409 
z
M 4713 5303 
L 5150 5303 
L 5150 4703 
L 6225 4703 
L 6225 4303 
L 5150 4303 
L 5150 3797 
L 4713 3797 
L 4713 4303 
L 3600 4303 
L 3600 3797 
L 3163 3797 
L 3163 4303 
L 2175 4303 
L 2175 4703 
L 3163 4703 
L 3163 5309 
L 3600 5309 
L 3600 4703 
L 4713 4703 
L 4713 5303 
z
M 5394 3247 
L 2950 3247 
L 2950 2778 
L 5394 2778 
L 5394 3247 
z
M 2950 1934 
L 5394 1934 
L 5394 2403 
L 2950 2403 
L 2950 1934 
z
" transform="scale(0.015625)"/>
       <path id="MicrosoftYaHei-578b" d="M 150 3503 
L 1100 3503 
Q 1106 3638 1106 4547 
L 413 4547 
L 413 4959 
L 3675 4959 
L 3675 4547 
L 2994 4547 
L 2994 3503 
L 3881 3503 
L 3881 3091 
L 2994 3091 
L 2994 1747 
L 2538 1747 
L 2538 3091 
L 1528 3091 
Q 1450 2191 638 1534 
Q 475 1716 294 1897 
Q 1013 2453 1066 3091 
L 150 3091 
L 150 3503 
z
M 138 -103 
L 2938 -103 
L 2938 741 
L 706 741 
L 706 1172 
L 2938 1172 
L 2938 1659 
L 3425 1659 
L 3425 1172 
L 5713 1172 
L 5713 741 
L 3425 741 
L 3425 -103 
L 6256 -103 
L 6256 -534 
L 138 -534 
L 138 -103 
z
M 5856 5209 
L 5856 2334 
Q 5856 1672 5200 1659 
Q 4825 1647 4331 1659 
Q 4306 1897 4256 2153 
Q 4781 2122 5044 2122 
Q 5400 2122 5400 2516 
L 5400 5209 
L 5856 5209 
z
M 1556 3503 
L 2538 3503 
L 2538 4547 
L 1563 4547 
Q 1563 3791 1556 3503 
z
M 4138 4859 
L 4588 4859 
L 4588 2697 
L 4138 2697 
L 4138 4859 
z
" transform="scale(0.015625)"/>
      </defs>
      <use xlink:href="#MicrosoftYaHei-6a21"/>
      <use xlink:href="#MicrosoftYaHei-578b" x="100"/>
     </g>
    </g>
    <g id="PathCollection_6">
     <g>
      <use xlink:href="#m1ceac36af5" x="1014.328" y="95.426038" style="fill: #ffc0cb; fill-opacity: 0.8; stroke: #000000; stroke-opacity: 0.8"/>
     </g>
    </g>
    <g id="text_16">
     <!-- GPT-4 turbo -->
     <g transform="translate(1032.328 98.051038) scale(0.1 -0.1)">
      <defs>
       <path id="MicrosoftYaHei-47" d="M 4284 331 
Q 3559 -81 2647 -81 
Q 1597 -81 955 583 
Q 313 1247 313 2356 
Q 313 3478 1022 4200 
Q 1731 4922 2841 4922 
Q 3625 4922 4169 4672 
L 4169 3997 
Q 3588 4363 2784 4363 
Q 1994 4363 1481 3822 
Q 969 3281 969 2397 
Q 969 1488 1441 981 
Q 1913 475 2716 475 
Q 3269 475 3656 688 
L 3656 1997 
L 2606 1997 
L 2606 2550 
L 4284 2550 
L 4284 331 
z
" transform="scale(0.015625)"/>
       <path id="MicrosoftYaHei-50" d="M 1250 1809 
L 1250 0 
L 625 0 
L 625 4841 
L 2000 4841 
Q 2784 4841 3217 4462 
Q 3650 4084 3650 3381 
Q 3650 2669 3144 2226 
Q 2638 1784 1878 1809 
L 1250 1809 
z
M 1250 4291 
L 1250 2359 
L 1828 2359 
Q 2400 2359 2697 2617 
Q 2994 2875 2994 3356 
Q 2994 4291 1888 4291 
L 1250 4291 
z
" transform="scale(0.015625)"/>
       <path id="MicrosoftYaHei-54" d="M 3550 4284 
L 2153 4284 
L 2153 0 
L 1525 0 
L 1525 4284 
L 134 4284 
L 134 4841 
L 3550 4841 
L 3550 4284 
z
" transform="scale(0.015625)"/>
       <path id="MicrosoftYaHei-2d" d="M 2328 1681 
L 488 1681 
L 488 2153 
L 2328 2153 
L 2328 1681 
z
" transform="scale(0.015625)"/>
       <path id="MicrosoftYaHei-20" transform="scale(0.015625)"/>
       <path id="MicrosoftYaHei-74" d="M 2206 34 
Q 2006 -75 1666 -75 
Q 738 -75 738 953 
L 738 2950 
L 144 2950 
L 144 3456 
L 738 3456 
L 738 4288 
L 1347 4481 
L 1347 3456 
L 2206 3456 
L 2206 2950 
L 1347 2950 
L 1347 1063 
Q 1347 722 1462 575 
Q 1578 428 1847 428 
Q 2053 428 2206 544 
L 2206 34 
z
" transform="scale(0.015625)"/>
       <path id="MicrosoftYaHei-75" d="M 3400 0 
L 2784 0 
L 2784 544 
L 2772 544 
Q 2425 -81 1706 -81 
Q 478 -81 478 1388 
L 478 3456 
L 1084 3456 
L 1084 1478 
Q 1084 425 1891 425 
Q 2291 425 2537 720 
Q 2784 1016 2784 1466 
L 2784 3456 
L 3400 3456 
L 3400 0 
z
" transform="scale(0.015625)"/>
       <path id="MicrosoftYaHei-72" d="M 2400 2850 
Q 2247 2959 1978 2959 
Q 1622 2959 1390 2626 
Q 1159 2294 1159 1750 
L 1159 0 
L 547 0 
L 547 3456 
L 1159 3456 
L 1159 2753 
L 1172 2753 
Q 1434 3516 2078 3516 
Q 2288 3516 2400 3469 
L 2400 2850 
z
" transform="scale(0.015625)"/>
       <path id="MicrosoftYaHei-62" d="M 1159 488 
L 1159 0 
L 547 0 
L 547 5116 
L 1159 5116 
L 1159 2859 
L 1172 2859 
Q 1578 3538 2359 3538 
Q 3009 3538 3392 3080 
Q 3775 2622 3775 1828 
Q 3775 953 3345 436 
Q 2916 -81 2200 -81 
Q 1525 -81 1172 488 
L 1159 488 
z
M 1156 1422 
Q 1156 1003 1428 714 
Q 1700 425 2109 425 
Q 2597 425 2872 800 
Q 3147 1175 3147 1838 
Q 3147 2384 2890 2707 
Q 2634 3031 2191 3031 
Q 1741 3031 1448 2709 
Q 1156 2388 1156 1891 
L 1156 1422 
z
" transform="scale(0.015625)"/>
       <path id="MicrosoftYaHei-6f" d="M 316 1691 
Q 316 2547 794 3042 
Q 1272 3538 2091 3538 
Q 2869 3538 3311 3061 
Q 3753 2584 3753 1744 
Q 3753 925 3281 422 
Q 2809 -81 2016 -81 
Q 1241 -81 778 406 
Q 316 894 316 1691 
z
M 941 1709 
Q 941 1113 1242 769 
Q 1544 425 2053 425 
Q 2578 425 2853 761 
Q 3128 1097 3128 1725 
Q 3128 2356 2853 2693 
Q 2578 3031 2053 3031 
Q 1538 3031 1239 2678 
Q 941 2325 941 1709 
z
" transform="scale(0.015625)"/>
      </defs>
      <use xlink:href="#MicrosoftYaHei-47"/>
      <use xlink:href="#MicrosoftYaHei-50" x="74.365234"/>
      <use xlink:href="#MicrosoftYaHei-54" x="135.546875"/>
      <use xlink:href="#MicrosoftYaHei-2d" x="192.871094"/>
      <use xlink:href="#MicrosoftYaHei-34" x="236.132812"/>
      <use xlink:href="#MicrosoftYaHei-20" x="294.775391"/>
      <use xlink:href="#MicrosoftYaHei-74" x="324.365234"/>
      <use xlink:href="#MicrosoftYaHei-75" x="361.621094"/>
      <use xlink:href="#MicrosoftYaHei-72" x="423.242188"/>
      <use xlink:href="#MicrosoftYaHei-62" x="461.425781"/>
      <use xlink:href="#MicrosoftYaHei-6f" x="525.292969"/>
     </g>
    </g>
    <g id="PathCollection_7">
     <g>
      <use xlink:href="#ma007c0ee91" x="1014.328" y="110.905725" style="fill: #0000ff; fill-opacity: 0.8; stroke: #000000; stroke-opacity: 0.8"/>
     </g>
    </g>
    <g id="text_17">
     <!-- LLaMa3 8B -->
     <g transform="translate(1032.328 113.530725) scale(0.1 -0.1)">
      <defs>
       <path id="MicrosoftYaHei-4c" d="M 3178 0 
L 625 0 
L 625 4841 
L 1250 4841 
L 1250 553 
L 3178 553 
L 3178 0 
z
" transform="scale(0.015625)"/>
       <path id="MicrosoftYaHei-61" d="M 628 3216 
Q 1144 3538 1819 3538 
Q 3069 3538 3069 2225 
L 3069 0 
L 2463 0 
L 2463 534 
L 2447 534 
Q 2088 -81 1388 -81 
Q 884 -81 587 191 
Q 291 463 291 925 
Q 291 1894 1438 2053 
L 2463 2197 
Q 2463 3044 1763 3044 
Q 1141 3044 628 2625 
L 628 3216 
z
M 1653 1625 
Q 1228 1569 1067 1412 
Q 906 1256 906 975 
Q 906 728 1081 572 
Q 1256 416 1544 416 
Q 1944 416 2203 697 
Q 2463 978 2463 1403 
L 2463 1734 
L 1653 1625 
z
" transform="scale(0.015625)"/>
       <path id="MicrosoftYaHei-4d" d="M 5003 0 
L 5003 3206 
Q 5003 3603 5050 4159 
L 5034 4159 
Q 4953 3809 4891 3672 
L 3294 0 
L 2947 0 
L 1353 3644 
Q 1297 3769 1209 4159 
L 1191 4159 
Q 1222 3822 1222 3178 
L 1222 0 
L 625 0 
L 625 4841 
L 1472 4841 
L 2900 1522 
Q 3063 1141 3116 928 
L 3138 928 
Q 3300 1375 3366 1534 
L 4819 4841 
L 5625 4841 
L 5625 0 
L 5003 0 
z
" transform="scale(0.015625)"/>
       <path id="MicrosoftYaHei-33" d="M 447 809 
Q 944 425 1569 425 
Q 2069 425 2361 670 
Q 2653 916 2653 1328 
Q 2653 2247 1338 2247 
L 934 2247 
L 934 2753 
L 1319 2753 
Q 2484 2753 2484 3616 
Q 2484 4413 1594 4413 
Q 1084 4413 634 4069 
L 634 4647 
Q 1109 4922 1744 4922 
Q 2363 4922 2738 4598 
Q 3113 4275 3113 3759 
Q 3113 2809 2144 2538 
L 2144 2525 
Q 2669 2469 2973 2155 
Q 3278 1841 3278 1372 
Q 3278 719 2808 319 
Q 2338 -81 1556 -81 
Q 869 -81 447 175 
L 447 809 
z
" transform="scale(0.015625)"/>
       <path id="MicrosoftYaHei-42" d="M 625 0 
L 625 4841 
L 2047 4841 
Q 2684 4841 3065 4536 
Q 3447 4231 3447 3728 
Q 3447 3328 3220 3022 
Q 2994 2716 2597 2588 
L 2597 2575 
Q 3091 2519 3386 2201 
Q 3681 1884 3681 1397 
Q 3681 772 3232 386 
Q 2784 0 2084 0 
L 625 0 
z
M 1250 4294 
L 1250 2778 
L 1819 2778 
Q 2272 2778 2530 2998 
Q 2788 3219 2788 3609 
Q 2788 4294 1875 4294 
L 1250 4294 
z
M 1250 2234 
L 1250 547 
L 2000 547 
Q 2491 547 2758 773 
Q 3025 1000 3025 1403 
Q 3025 2234 1897 2234 
L 1250 2234 
z
" transform="scale(0.015625)"/>
      </defs>
      <use xlink:href="#MicrosoftYaHei-4c"/>
      <use xlink:href="#MicrosoftYaHei-4c" x="51.318359"/>
      <use xlink:href="#MicrosoftYaHei-61" x="102.636719"/>
      <use xlink:href="#MicrosoftYaHei-4d" x="157.910156"/>
      <use xlink:href="#MicrosoftYaHei-61" x="255.615234"/>
      <use xlink:href="#MicrosoftYaHei-33" x="310.888672"/>
      <use xlink:href="#MicrosoftYaHei-20" x="369.53125"/>
      <use xlink:href="#MicrosoftYaHei-38" x="399.121094"/>
      <use xlink:href="#MicrosoftYaHei-42" x="457.763672"/>
     </g>
    </g>
    <g id="PathCollection_8">
     <g>
      <use xlink:href="#m939f1da8f5" x="1014.328" y="126.385413" style="fill: #0000ff; fill-opacity: 0.8; stroke: #000000; stroke-opacity: 0.8"/>
     </g>
    </g>
    <g id="text_18">
     <!-- LLaMa3 70B -->
     <g transform="translate(1032.328 129.010413) scale(0.1 -0.1)">
      <defs>
       <path id="MicrosoftYaHei-37" d="M 3422 4463 
Q 2659 3131 2223 1998 
Q 1788 866 1684 0 
L 1047 0 
Q 1163 853 1594 1947 
Q 2025 3041 2747 4300 
L 347 4300 
L 347 4841 
L 3422 4841 
L 3422 4463 
z
" transform="scale(0.015625)"/>
      </defs>
      <use xlink:href="#MicrosoftYaHei-4c"/>
      <use xlink:href="#MicrosoftYaHei-4c" x="51.318359"/>
      <use xlink:href="#MicrosoftYaHei-61" x="102.636719"/>
      <use xlink:href="#MicrosoftYaHei-4d" x="157.910156"/>
      <use xlink:href="#MicrosoftYaHei-61" x="255.615234"/>
      <use xlink:href="#MicrosoftYaHei-33" x="310.888672"/>
      <use xlink:href="#MicrosoftYaHei-20" x="369.53125"/>
      <use xlink:href="#MicrosoftYaHei-37" x="399.121094"/>
      <use xlink:href="#MicrosoftYaHei-30" x="457.763672"/>
      <use xlink:href="#MicrosoftYaHei-42" x="516.40625"/>
     </g>
    </g>
    <g id="PathCollection_9">
     <g>
      <use xlink:href="#mb99a1d8d76" x="1014.328" y="141.8651" style="fill: #800080; fill-opacity: 0.8; stroke: #000000; stroke-opacity: 0.8"/>
     </g>
    </g>
    <g id="text_19">
     <!-- DeepSeek 1.5B -->
     <g transform="translate(1032.328 144.4901) scale(0.1 -0.1)">
      <defs>
       <path id="MicrosoftYaHei-44" d="M 625 0 
L 625 4841 
L 2006 4841 
Q 3106 4841 3836 4200 
Q 4566 3559 4566 2481 
Q 4566 1356 3836 678 
Q 3106 0 1956 0 
L 625 0 
z
M 1250 4284 
L 1250 553 
L 1953 553 
Q 2875 553 3392 1056 
Q 3909 1559 3909 2466 
Q 3909 3372 3378 3828 
Q 2847 4284 1981 4284 
L 1250 4284 
z
" transform="scale(0.015625)"/>
       <path id="MicrosoftYaHei-65" d="M 3363 1572 
L 944 1572 
Q 959 1019 1246 717 
Q 1534 416 2050 416 
Q 2631 416 3116 788 
L 3116 241 
Q 2659 -81 1906 -81 
Q 1156 -81 736 394 
Q 316 869 316 1713 
Q 316 2506 777 3022 
Q 1238 3538 1922 3538 
Q 2600 3538 2981 3102 
Q 3363 2666 3363 1881 
L 3363 1572 
z
M 2750 2063 
Q 2747 2531 2528 2787 
Q 2309 3044 1913 3044 
Q 1547 3044 1280 2772 
Q 1013 2500 944 2063 
L 2750 2063 
z
" transform="scale(0.015625)"/>
       <path id="MicrosoftYaHei-70" d="M 1159 488 
L 1159 -1591 
L 547 -1591 
L 547 3456 
L 1159 3456 
L 1159 2859 
L 1172 2859 
Q 1578 3538 2359 3538 
Q 3022 3538 3398 3073 
Q 3775 2609 3775 1828 
Q 3775 966 3348 442 
Q 2922 -81 2200 -81 
Q 1534 -81 1172 488 
L 1159 488 
z
M 1156 1425 
Q 1156 1003 1428 714 
Q 1700 425 2109 425 
Q 2597 425 2872 800 
Q 3147 1175 3147 1838 
Q 3147 2397 2890 2714 
Q 2634 3031 2191 3031 
Q 1738 3031 1447 2709 
Q 1156 2388 1156 1884 
L 1156 1425 
z
" transform="scale(0.015625)"/>
       <path id="MicrosoftYaHei-53" d="M 400 909 
Q 622 716 994 591 
Q 1366 466 1700 466 
Q 2719 466 2719 1191 
Q 2719 1394 2609 1556 
Q 2500 1719 2309 1844 
Q 2119 1969 1594 2228 
Q 866 2591 634 2902 
Q 403 3213 403 3613 
Q 403 4216 887 4569 
Q 1372 4922 2109 4922 
Q 2831 4922 3169 4747 
L 3169 4066 
Q 2731 4369 2063 4369 
Q 1619 4369 1339 4183 
Q 1059 3997 1059 3666 
Q 1059 3372 1253 3187 
Q 1447 3003 2094 2684 
Q 2806 2344 3090 2003 
Q 3375 1663 3375 1238 
Q 3375 600 2912 259 
Q 2450 -81 1628 -81 
Q 1341 -81 958 -1 
Q 575 78 400 197 
L 400 909 
z
" transform="scale(0.015625)"/>
       <path id="MicrosoftYaHei-6b" d="M 3484 0 
L 2650 0 
L 1172 1666 
L 1159 1666 
L 1159 0 
L 547 0 
L 547 5116 
L 1159 5116 
L 1159 1872 
L 1172 1872 
L 2575 3456 
L 3363 3456 
L 1800 1794 
L 3484 0 
z
" transform="scale(0.015625)"/>
       <path id="MicrosoftYaHei-35" d="M 3294 1494 
Q 3294 784 2823 350 
Q 2353 -84 1559 -84 
Q 878 -84 544 119 
L 544 744 
Q 1034 425 1544 425 
Q 2050 425 2361 704 
Q 2672 984 2672 1447 
Q 2672 1909 2348 2167 
Q 2025 2425 1434 2425 
Q 978 2425 613 2384 
L 791 4841 
L 3053 4841 
L 3053 4303 
L 1306 4303 
L 1206 2931 
L 1647 2950 
Q 2416 2950 2855 2567 
Q 3294 2184 3294 1494 
z
" transform="scale(0.015625)"/>
      </defs>
      <use xlink:href="#MicrosoftYaHei-44"/>
      <use xlink:href="#MicrosoftYaHei-65" x="76.171875"/>
      <use xlink:href="#MicrosoftYaHei-65" x="132.910156"/>
      <use xlink:href="#MicrosoftYaHei-70" x="189.648438"/>
      <use xlink:href="#MicrosoftYaHei-53" x="253.515625"/>
      <use xlink:href="#MicrosoftYaHei-65" x="311.230469"/>
      <use xlink:href="#MicrosoftYaHei-65" x="367.96875"/>
      <use xlink:href="#MicrosoftYaHei-6b" x="424.707031"/>
      <use xlink:href="#MicrosoftYaHei-20" x="479.150391"/>
      <use xlink:href="#MicrosoftYaHei-31" x="508.740234"/>
      <use xlink:href="#MicrosoftYaHei-2e" x="567.382812"/>
      <use xlink:href="#MicrosoftYaHei-35" x="591.455078"/>
      <use xlink:href="#MicrosoftYaHei-42" x="650.097656"/>
     </g>
    </g>
    <g id="PathCollection_10">
     <g>
      <use xlink:href="#m44b6c6cb2c" x="1014.328" y="157.344788" style="fill: #ff00ff; fill-opacity: 0.8; stroke: #000000; stroke-opacity: 0.8"/>
     </g>
    </g>
    <g id="text_20">
     <!-- LLASP -->
     <g transform="translate(1032.328 159.969788) scale(0.1 -0.1)">
      <defs>
       <path id="MicrosoftYaHei-41" d="M 4428 0 
L 3738 0 
L 3244 1325 
L 1228 1325 
L 763 0 
L 72 0 
L 1916 4841 
L 2584 4841 
L 4428 0 
z
M 3050 1872 
L 2319 3884 
Q 2284 3981 2244 4222 
L 2228 4222 
Q 2194 4003 2150 3884 
L 1425 1872 
L 3050 1872 
z
" transform="scale(0.015625)"/>
      </defs>
      <use xlink:href="#MicrosoftYaHei-4c"/>
      <use xlink:href="#MicrosoftYaHei-4c" x="51.318359"/>
      <use xlink:href="#MicrosoftYaHei-41" x="105.761719"/>
      <use xlink:href="#MicrosoftYaHei-53" x="176.123047"/>
      <use xlink:href="#MicrosoftYaHei-50" x="233.837891"/>
     </g>
    </g>
   </g>
  </g>
 </g>
 <defs>
  <clipPath id="pca53982378">
   <rect x="138.24" y="65.5776" width="857.088" height="420.7896"/>
  </clipPath>
 </defs>
</svg>
